<?xml version="1.0" encoding="UTF-8"?>
<svg xmlns="http://www.w3.org/2000/svg" xmlns:xlink="http://www.w3.org/1999/xlink" width="250px" height="150px" viewBox="0 0 250 150" version="1.1">
<defs>
<clipPath id="clip1">
  <path d="M 103 44.902344 L 147 44.902344 L 147 62.398438 L 103 62.398438 Z M 103 44.902344 "/>
</clipPath>
<clipPath id="clip2">
  <path d="M 120.667969 51 L 164.613281 51 L 164.613281 68.398438 L 120.667969 68.398438 Z M 120.667969 51 "/>
</clipPath>
<clipPath id="clip3">
  <path d="M 138 57 L 156.667969 57 L 156.667969 86.601562 L 138 86.601562 Z M 138 57 "/>
</clipPath>
<clipPath id="clip4">
  <path d="M 103 69.199219 L 147 69.199219 L 147 86.601562 L 103 86.601562 Z M 103 69.199219 "/>
</clipPath>
<clipPath id="clip5">
  <path d="M 85.613281 63.199219 L 129.332031 63.199219 L 129.332031 80.800781 L 85.613281 80.800781 Z M 85.613281 63.199219 "/>
</clipPath>
<clipPath id="clip6">
  <path d="M 94 44.902344 L 112 44.902344 L 112 74.398438 L 94 74.398438 Z M 94 44.902344 "/>
</clipPath>
</defs>
<g id="surface1">
<g clip-path="url(#clip1)" clip-rule="nonzero">
<path style=" stroke:none;fill-rule:evenodd;fill:rgb(16.470588%,65.882353%,45.098039%);fill-opacity:1;" d="M 110.410156 61.414062 C 111.167969 60.960938 111.636719 60.335938 111.636719 59.640625 C 111.636719 59.015625 111.253906 58.445312 110.621094 58.007812 L 120.019531 48.242188 L 138.832031 48.242188 C 139.039062 48.597656 139.378906 48.921875 139.820312 49.183594 C 140.574219 49.636719 141.621094 49.917969 142.773438 49.917969 C 143.925781 49.917969 144.96875 49.636719 145.726562 49.183594 C 146.480469 48.730469 146.949219 48.101562 146.949219 47.414062 C 146.949219 46.71875 146.480469 46.09375 145.726562 45.640625 C 144.96875 45.1875 143.925781 44.90625 142.773438 44.90625 C 141.621094 44.90625 140.574219 45.1875 139.820312 45.640625 C 139.378906 45.902344 139.039062 46.226562 138.832031 46.585938 L 118.441406 46.585938 L 118.039062 47 L 108.238281 57.179688 C 107.988281 57.152344 107.726562 57.136719 107.457031 57.136719 C 106.304688 57.136719 105.261719 57.417969 104.503906 57.871094 C 103.75 58.324219 103.28125 58.949219 103.28125 59.640625 C 103.28125 60.335938 103.75 60.960938 104.503906 61.414062 C 105.261719 61.867188 106.304688 62.148438 107.457031 62.148438 C 108.613281 62.148438 109.65625 61.867188 110.410156 61.414062 Z M 106.457031 59.042969 C 106.714844 58.890625 107.066406 58.792969 107.457031 58.792969 C 107.847656 58.792969 108.203125 58.890625 108.457031 59.042969 C 108.714844 59.195312 108.871094 59.40625 108.871094 59.640625 C 108.871094 59.875 108.714844 60.089844 108.457031 60.242188 C 108.203125 60.394531 107.847656 60.492188 107.457031 60.492188 C 107.066406 60.492188 106.714844 60.394531 106.457031 60.242188 C 106.199219 60.089844 106.042969 59.875 106.042969 59.640625 C 106.042969 59.40625 106.199219 59.195312 106.457031 59.042969 Z M 141.773438 46.8125 C 142.027344 46.65625 142.382812 46.5625 142.773438 46.5625 C 143.164062 46.5625 143.519531 46.65625 143.773438 46.8125 C 144.027344 46.964844 144.1875 47.179688 144.1875 47.414062 C 144.1875 47.648438 144.027344 47.859375 143.773438 48.011719 C 143.519531 48.164062 143.164062 48.261719 142.773438 48.261719 C 142.382812 48.261719 142.027344 48.164062 141.773438 48.011719 C 141.515625 47.859375 141.355469 47.648438 141.355469 47.414062 C 141.355469 47.179688 141.515625 46.964844 141.773438 46.8125 "/>
</g>
<g clip-path="url(#clip2)" clip-rule="nonzero">
<path style=" stroke:none;fill-rule:evenodd;fill:rgb(34.117647%,77.254902%,60.392157%);fill-opacity:1;" d="M 122.160156 55.296875 C 122.917969 55.75 123.964844 56.03125 125.113281 56.03125 C 126.269531 56.03125 127.3125 55.75 128.066406 55.296875 C 128.507812 55.035156 128.847656 54.714844 129.058594 54.355469 L 147.871094 54.355469 L 157.269531 64.121094 C 156.636719 64.558594 156.253906 65.132812 156.253906 65.757812 C 156.253906 66.449219 156.722656 67.074219 157.476562 67.527344 C 158.230469 67.980469 159.277344 68.261719 160.429688 68.261719 C 161.582031 68.261719 162.628906 67.980469 163.382812 67.527344 C 164.136719 67.074219 164.605469 66.449219 164.605469 65.757812 C 164.605469 65.066406 164.136719 64.4375 163.382812 63.984375 C 162.628906 63.53125 161.582031 63.25 160.429688 63.25 C 160.164062 63.25 159.902344 63.265625 159.648438 63.296875 L 149.851562 53.117188 L 149.449219 52.699219 L 129.058594 52.699219 C 128.847656 52.339844 128.507812 52.019531 128.066406 51.757812 C 127.3125 51.304688 126.269531 51.023438 125.113281 51.023438 C 123.964844 51.023438 122.917969 51.304688 122.160156 51.757812 C 121.40625 52.210938 120.941406 52.835938 120.941406 53.527344 C 120.941406 54.21875 121.40625 54.84375 122.160156 55.296875 Z M 124.113281 54.128906 C 123.859375 53.972656 123.699219 53.761719 123.699219 53.527344 C 123.699219 53.292969 123.859375 53.082031 124.113281 52.925781 C 124.371094 52.773438 124.722656 52.679688 125.113281 52.679688 C 125.503906 52.679688 125.859375 52.773438 126.117188 52.925781 C 126.371094 53.082031 126.53125 53.292969 126.53125 53.527344 C 126.53125 53.761719 126.371094 53.972656 126.117188 54.128906 C 125.859375 54.28125 125.503906 54.375 125.113281 54.375 C 124.722656 54.375 124.371094 54.28125 124.113281 54.128906 Z M 159.429688 65.15625 C 159.683594 65.003906 160.039062 64.90625 160.429688 64.90625 C 160.820312 64.90625 161.175781 65.003906 161.429688 65.15625 C 161.6875 65.3125 161.847656 65.523438 161.847656 65.757812 C 161.847656 65.992188 161.6875 66.203125 161.429688 66.359375 C 161.175781 66.511719 160.820312 66.605469 160.429688 66.605469 C 160.039062 66.605469 159.683594 66.511719 159.429688 66.359375 C 159.175781 66.203125 159.015625 65.992188 159.015625 65.757812 C 159.015625 65.523438 159.175781 65.3125 159.429688 65.15625 "/>
</g>
<g clip-path="url(#clip3)" clip-rule="nonzero">
<path style=" stroke:none;fill-rule:evenodd;fill:rgb(41.960784%,80%,65.098039%);fill-opacity:1;" d="M 138.597656 59.640625 C 138.597656 60.335938 139.0625 60.960938 139.820312 61.414062 C 140.574219 61.867188 141.621094 62.148438 142.773438 62.148438 C 143.039062 62.148438 143.300781 62.132812 143.554688 62.101562 L 152.957031 71.871094 L 143.554688 81.640625 C 143.300781 81.613281 143.039062 81.597656 142.773438 81.597656 C 141.621094 81.597656 140.574219 81.878906 139.820312 82.332031 C 139.0625 82.785156 138.597656 83.410156 138.597656 84.101562 C 138.597656 84.792969 139.0625 85.421875 139.820312 85.875 C 140.574219 86.328125 141.621094 86.609375 142.773438 86.609375 C 143.925781 86.609375 144.96875 86.328125 145.726562 85.875 C 146.480469 85.421875 146.949219 84.792969 146.949219 84.101562 C 146.949219 83.476562 146.566406 82.90625 145.933594 82.464844 L 155.738281 72.28125 L 156.128906 71.871094 L 155.738281 71.460938 L 145.933594 61.277344 C 146.566406 60.839844 146.949219 60.265625 146.949219 59.640625 C 146.949219 58.949219 146.480469 58.324219 145.726562 57.871094 C 144.96875 57.417969 143.925781 57.136719 142.773438 57.136719 C 141.621094 57.136719 140.574219 57.417969 139.820312 57.871094 C 139.0625 58.324219 138.597656 58.949219 138.597656 59.640625 Z M 142.773438 60.492188 C 142.382812 60.492188 142.027344 60.394531 141.773438 60.242188 C 141.515625 60.089844 141.355469 59.875 141.355469 59.640625 C 141.355469 59.40625 141.515625 59.195312 141.773438 59.042969 C 142.027344 58.890625 142.382812 58.792969 142.773438 58.792969 C 143.164062 58.792969 143.519531 58.890625 143.773438 59.042969 C 144.027344 59.195312 144.1875 59.40625 144.1875 59.640625 C 144.1875 59.875 144.027344 60.089844 143.773438 60.242188 C 143.519531 60.394531 143.164062 60.492188 142.773438 60.492188 Z M 141.773438 83.5 C 142.027344 83.347656 142.382812 83.253906 142.773438 83.253906 C 143.164062 83.253906 143.519531 83.347656 143.773438 83.5 C 144.027344 83.65625 144.1875 83.867188 144.1875 84.101562 C 144.1875 84.335938 144.027344 84.546875 143.773438 84.703125 C 143.519531 84.855469 143.164062 84.953125 142.773438 84.953125 C 142.382812 84.953125 142.027344 84.855469 141.773438 84.703125 C 141.515625 84.546875 141.355469 84.335938 141.355469 84.101562 C 141.355469 83.867188 141.515625 83.65625 141.773438 83.5 "/>
</g>
<g clip-path="url(#clip4)" clip-rule="nonzero">
<path style=" stroke:none;fill-rule:evenodd;fill:rgb(58.823529%,85.882353%,74.509804%);fill-opacity:1;" d="M 142.773438 69.367188 C 141.621094 69.367188 140.574219 69.648438 139.820312 70.101562 C 139.0625 70.554688 138.597656 71.179688 138.597656 71.871094 C 138.597656 72.496094 138.980469 73.070312 139.613281 73.507812 L 130.210938 83.273438 L 111.402344 83.273438 C 111.191406 82.914062 110.847656 82.59375 110.410156 82.332031 C 109.65625 81.878906 108.613281 81.597656 107.457031 81.597656 C 106.304688 81.597656 105.261719 81.878906 104.503906 82.332031 C 103.75 82.785156 103.28125 83.410156 103.28125 84.101562 C 103.28125 84.792969 103.75 85.421875 104.503906 85.875 C 105.261719 86.328125 106.304688 86.609375 107.457031 86.609375 C 108.613281 86.609375 109.65625 86.328125 110.410156 85.875 C 110.847656 85.609375 111.191406 85.289062 111.402344 84.929688 L 131.792969 84.929688 L 132.191406 84.511719 L 141.988281 74.332031 C 142.246094 74.363281 142.503906 74.375 142.773438 74.375 C 143.925781 74.375 144.96875 74.097656 145.726562 73.644531 C 146.480469 73.191406 146.949219 72.5625 146.949219 71.871094 C 146.949219 71.179688 146.480469 70.554688 145.726562 70.101562 C 144.96875 69.648438 143.925781 69.367188 142.773438 69.367188 Z M 141.355469 71.871094 C 141.355469 71.636719 141.515625 71.425781 141.773438 71.273438 C 142.027344 71.117188 142.382812 71.023438 142.773438 71.023438 C 143.164062 71.023438 143.519531 71.117188 143.773438 71.273438 C 144.027344 71.425781 144.1875 71.636719 144.1875 71.871094 C 144.1875 72.105469 144.027344 72.320312 143.773438 72.472656 C 143.519531 72.625 143.164062 72.722656 142.773438 72.722656 C 142.382812 72.722656 142.027344 72.625 141.773438 72.472656 C 141.515625 72.320312 141.355469 72.105469 141.355469 71.871094 Z M 106.457031 83.5 C 106.714844 83.347656 107.066406 83.253906 107.457031 83.253906 C 107.847656 83.253906 108.203125 83.347656 108.457031 83.5 C 108.714844 83.65625 108.871094 83.867188 108.871094 84.101562 C 108.871094 84.335938 108.714844 84.546875 108.457031 84.703125 C 108.203125 84.855469 107.847656 84.953125 107.457031 84.953125 C 107.066406 84.953125 106.714844 84.855469 106.457031 84.703125 C 106.199219 84.546875 106.042969 84.335938 106.042969 84.101562 C 106.042969 83.867188 106.199219 83.65625 106.457031 83.5 "/>
</g>
<g clip-path="url(#clip5)" clip-rule="nonzero">
<path style=" stroke:none;fill-rule:evenodd;fill:rgb(6.666667%,38.431373%,27.45098%);fill-opacity:1;" d="M 128.066406 76.214844 C 127.3125 75.761719 126.269531 75.480469 125.113281 75.480469 C 123.964844 75.480469 122.917969 75.761719 122.160156 76.214844 C 121.722656 76.480469 121.382812 76.800781 121.171875 77.160156 L 102.363281 77.160156 L 92.964844 67.394531 C 93.59375 66.953125 93.976562 66.382812 93.976562 65.757812 C 93.976562 65.066406 93.511719 64.4375 92.753906 63.984375 C 91.996094 63.53125 90.953125 63.25 89.800781 63.25 C 88.648438 63.25 87.605469 63.53125 86.847656 63.984375 C 86.089844 64.4375 85.625 65.066406 85.625 65.757812 C 85.625 66.449219 86.089844 67.074219 86.847656 67.527344 C 87.605469 67.980469 88.648438 68.261719 89.800781 68.261719 C 90.066406 68.261719 90.328125 68.246094 90.582031 68.21875 L 100.378906 78.398438 L 100.78125 78.816406 L 121.171875 78.816406 C 121.382812 79.175781 121.722656 79.496094 122.160156 79.757812 C 122.917969 80.210938 123.964844 80.492188 125.113281 80.492188 C 126.269531 80.492188 127.3125 80.210938 128.066406 79.757812 C 128.824219 79.304688 129.292969 78.679688 129.292969 77.988281 C 129.292969 77.296875 128.824219 76.667969 128.066406 76.214844 Z M 124.113281 77.386719 C 124.371094 77.234375 124.722656 77.140625 125.113281 77.140625 C 125.503906 77.140625 125.859375 77.234375 126.117188 77.386719 C 126.371094 77.539062 126.53125 77.753906 126.53125 77.988281 C 126.53125 78.222656 126.371094 78.433594 126.117188 78.585938 C 125.859375 78.742188 125.503906 78.835938 125.113281 78.835938 C 124.722656 78.835938 124.371094 78.742188 124.113281 78.585938 C 123.859375 78.433594 123.699219 78.222656 123.699219 77.988281 C 123.699219 77.753906 123.859375 77.539062 124.113281 77.386719 Z M 90.800781 65.15625 C 91.058594 65.3125 91.214844 65.523438 91.214844 65.757812 C 91.214844 65.992188 91.058594 66.203125 90.800781 66.359375 C 90.542969 66.511719 90.191406 66.605469 89.800781 66.605469 C 89.410156 66.605469 89.054688 66.511719 88.800781 66.359375 C 88.542969 66.203125 88.386719 65.992188 88.386719 65.757812 C 88.386719 65.523438 88.542969 65.3125 88.800781 65.15625 C 89.054688 65.003906 89.410156 64.90625 89.800781 64.90625 C 90.191406 64.90625 90.542969 65.003906 90.800781 65.15625 "/>
</g>
<g clip-path="url(#clip6)" clip-rule="nonzero">
<path style=" stroke:none;fill-rule:evenodd;fill:rgb(13.333333%,45.882353%,35.686275%);fill-opacity:1;" d="M 111.636719 71.871094 C 111.636719 71.179688 111.167969 70.554688 110.410156 70.101562 C 109.65625 69.648438 108.613281 69.367188 107.457031 69.367188 C 107.191406 69.367188 106.933594 69.382812 106.679688 69.410156 L 97.277344 59.640625 L 106.675781 49.875 C 106.929688 49.902344 107.191406 49.917969 107.457031 49.917969 C 108.613281 49.917969 109.65625 49.636719 110.410156 49.183594 C 111.167969 48.730469 111.636719 48.101562 111.636719 47.414062 C 111.636719 46.71875 111.167969 46.09375 110.410156 45.640625 C 109.65625 45.1875 108.613281 44.90625 107.457031 44.90625 C 106.304688 44.90625 105.261719 45.1875 104.503906 45.640625 C 103.75 46.09375 103.28125 46.71875 103.28125 47.414062 C 103.28125 48.039062 103.664062 48.609375 104.296875 49.046875 L 94.496094 59.230469 L 94.097656 59.644531 L 94.496094 60.054688 L 104.292969 70.238281 C 103.664062 70.675781 103.28125 71.246094 103.28125 71.871094 C 103.28125 72.5625 103.75 73.191406 104.503906 73.644531 C 105.261719 74.097656 106.304688 74.375 107.457031 74.375 C 108.613281 74.375 109.65625 74.097656 110.410156 73.644531 C 111.167969 73.191406 111.636719 72.5625 111.636719 71.871094 Z M 106.457031 71.273438 C 106.714844 71.117188 107.066406 71.023438 107.457031 71.023438 C 107.847656 71.023438 108.203125 71.117188 108.457031 71.273438 C 108.714844 71.425781 108.871094 71.636719 108.871094 71.871094 C 108.871094 72.105469 108.714844 72.320312 108.457031 72.472656 C 108.203125 72.625 107.847656 72.722656 107.457031 72.722656 C 107.066406 72.722656 106.714844 72.625 106.457031 72.472656 C 106.199219 72.320312 106.042969 72.105469 106.042969 71.871094 C 106.042969 71.636719 106.199219 71.425781 106.457031 71.273438 Z M 107.457031 48.261719 C 107.066406 48.261719 106.714844 48.164062 106.457031 48.011719 C 106.199219 47.859375 106.042969 47.648438 106.042969 47.414062 C 106.042969 47.179688 106.199219 46.964844 106.457031 46.8125 C 106.714844 46.65625 107.066406 46.5625 107.457031 46.5625 C 107.847656 46.5625 108.203125 46.65625 108.457031 46.8125 C 108.714844 46.964844 108.871094 47.179688 108.871094 47.414062 C 108.871094 47.648438 108.714844 47.859375 108.457031 48.011719 C 108.203125 48.164062 107.847656 48.261719 107.457031 48.261719 "/>
</g>
<path style=" stroke:none;fill-rule:nonzero;fill:rgb(6.27451%,38.431373%,27.45098%);fill-opacity:1;" d="M 65.019531 93.933594 L 67.660156 93.933594 C 67.660156 92.453125 65.589844 91.808594 63.671875 91.808594 C 61.386719 91.808594 59.457031 92.65625 59.578125 94.074219 L 59.578125 94.0625 C 59.777344 95.542969 61.832031 95.773438 63.566406 95.875 C 63.964844 95.902344 65.191406 95.921875 65.191406 96.378906 C 65.191406 96.75 64.5 96.894531 63.640625 96.894531 C 63.042969 96.894531 62.152344 96.777344 62.152344 96.140625 L 59.503906 96.140625 C 59.503906 97.777344 61.878906 98.421875 63.625 98.421875 C 65.664062 98.421875 67.839844 97.648438 67.839844 96.308594 C 67.839844 96.167969 67.808594 96.003906 67.765625 95.855469 C 67.304688 94.699219 65.386719 94.457031 63.871094 94.339844 C 63.519531 94.320312 62.246094 94.3125 62.246094 93.832031 C 62.246094 93.484375 62.8125 93.269531 63.625 93.269531 C 64.4375 93.269531 65.019531 93.503906 65.019531 93.933594 Z M 65.019531 93.933594 "/>
<path style=" stroke:none;fill-rule:nonzero;fill:rgb(6.27451%,38.431373%,27.45098%);fill-opacity:1;" d="M 70.84375 95.128906 C 70.84375 97.023438 73.328125 98.433594 76.394531 98.433594 C 79.460938 98.433594 81.960938 96.996094 81.960938 95.128906 C 81.960938 93.234375 79.460938 91.800781 76.394531 91.800781 C 73.328125 91.800781 70.84375 93.234375 70.84375 95.128906 Z M 73.453125 95.128906 C 73.453125 93.90625 74.921875 93.308594 76.394531 93.308594 C 77.867188 93.308594 79.324219 93.914062 79.324219 95.128906 C 79.324219 96.335938 77.835938 96.941406 76.363281 96.941406 C 74.890625 96.941406 73.453125 96.34375 73.453125 95.128906 Z M 73.453125 95.128906 "/>
<path style=" stroke:none;fill-rule:nonzero;fill:rgb(6.27451%,38.431373%,27.45098%);fill-opacity:1;" d="M 91.984375 93.347656 L 91.984375 91.847656 L 85.039062 91.847656 L 85.039062 98.339844 L 87.644531 98.339844 L 87.644531 96.011719 L 91.738281 96.011719 L 91.738281 94.550781 L 87.644531 94.550781 L 87.644531 93.347656 Z M 91.984375 93.347656 "/>
<path style=" stroke:none;fill-rule:nonzero;fill:rgb(6.27451%,38.431373%,27.45098%);fill-opacity:1;" d="M 103.097656 91.828125 L 94.695312 91.828125 L 94.695312 93.300781 L 97.59375 93.300781 L 97.59375 98.339844 L 100.214844 98.339844 L 100.214844 93.300781 L 103.097656 93.300781 Z M 103.097656 91.828125 "/>
<path style=" stroke:none;fill-rule:nonzero;fill:rgb(6.27451%,38.431373%,27.45098%);fill-opacity:1;" d="M 114.472656 98.339844 L 114.472656 91.902344 L 111.851562 91.902344 L 111.851562 94.328125 L 108.722656 94.328125 L 108.722656 91.902344 L 106.101562 91.902344 L 106.101562 98.339844 L 108.722656 98.339844 L 108.722656 95.847656 L 111.851562 95.847656 L 111.851562 98.339844 Z M 114.472656 98.339844 "/>
<path style=" stroke:none;fill-rule:nonzero;fill:rgb(6.27451%,38.431373%,27.45098%);fill-opacity:1;" d="M 121.863281 98.433594 C 123.914062 98.433594 125.96875 97.714844 125.96875 96.269531 L 125.96875 91.902344 L 123.347656 91.902344 L 123.347656 96.261719 C 123.347656 96.738281 122.582031 96.980469 121.816406 96.980469 C 121.0625 96.980469 120.3125 96.738281 120.3125 96.261719 L 120.3125 91.902344 L 117.691406 91.902344 L 117.691406 96.269531 C 117.691406 97.730469 119.777344 98.433594 121.863281 98.433594 Z M 121.863281 98.433594 "/>
<path style=" stroke:none;fill-rule:nonzero;fill:rgb(6.27451%,38.431373%,27.45098%);fill-opacity:1;" d="M 134.355469 93.933594 L 136.992188 93.933594 C 136.992188 92.453125 134.921875 91.808594 133.003906 91.808594 C 130.722656 91.808594 128.789062 92.65625 128.910156 94.074219 L 128.910156 94.0625 C 129.113281 95.542969 131.167969 95.773438 132.898438 95.875 C 133.296875 95.902344 134.523438 95.921875 134.523438 96.378906 C 134.523438 96.75 133.832031 96.894531 132.972656 96.894531 C 132.378906 96.894531 131.488281 96.777344 131.488281 96.140625 L 128.835938 96.140625 C 128.835938 97.777344 131.210938 98.421875 132.957031 98.421875 C 134.996094 98.421875 137.175781 97.648438 137.175781 96.308594 C 137.175781 96.167969 137.144531 96.003906 137.097656 95.855469 C 136.636719 94.699219 134.722656 94.457031 133.207031 94.339844 C 132.851562 94.320312 131.582031 94.3125 131.582031 93.832031 C 131.582031 93.484375 132.144531 93.269531 132.957031 93.269531 C 133.769531 93.269531 134.355469 93.503906 134.355469 93.933594 Z M 134.355469 93.933594 "/>
<path style=" stroke:none;fill-rule:nonzero;fill:rgb(6.27451%,38.431373%,27.45098%);fill-opacity:1;" d="M 148.304688 91.828125 L 139.902344 91.828125 L 139.902344 93.300781 L 142.800781 93.300781 L 142.800781 98.339844 L 145.421875 98.339844 L 145.421875 93.300781 L 148.304688 93.300781 Z M 148.304688 91.828125 "/>
<path style=" stroke:none;fill-rule:nonzero;fill:rgb(6.27451%,38.431373%,27.45098%);fill-opacity:1;" d="M 151.304688 91.902344 L 151.304688 98.339844 L 158.4375 98.339844 L 158.4375 96.824219 L 153.929688 96.824219 L 153.929688 91.902344 Z M 151.304688 91.902344 "/>
<path style=" stroke:none;fill-rule:nonzero;fill:rgb(6.27451%,38.431373%,27.45098%);fill-opacity:1;" d="M 161.285156 91.847656 L 161.285156 98.339844 L 168.367188 98.339844 L 168.367188 96.824219 L 163.921875 96.824219 L 163.921875 95.792969 L 168.261719 95.792969 L 168.261719 94.265625 L 163.921875 94.265625 L 163.921875 93.363281 L 168.351562 93.363281 L 168.351562 91.847656 Z M 161.285156 91.847656 "/>
<path style=" stroke:none;fill-rule:nonzero;fill:rgb(6.27451%,38.431373%,27.45098%);fill-opacity:1;" d="M 175.542969 91.847656 L 171.371094 91.847656 L 171.371094 98.339844 L 173.980469 98.339844 L 173.980469 96.160156 L 174.410156 96.160156 L 176.644531 98.339844 L 179.4375 98.339844 L 179.4375 98.046875 L 177.136719 96.003906 C 178.546875 95.597656 179.238281 94.769531 179.238281 93.988281 C 179.238281 92.921875 177.996094 91.847656 175.542969 91.847656 Z M 175.480469 94.734375 L 173.980469 94.734375 L 173.980469 93.355469 L 175.480469 93.355469 C 176.277344 93.355469 176.675781 93.714844 176.675781 94.054688 C 176.675781 94.386719 176.261719 94.734375 175.480469 94.734375 Z M 175.480469 94.734375 "/>
<path style=" stroke:none;fill-rule:nonzero;fill:rgb(6.27451%,38.431373%,27.45098%);fill-opacity:1;" d="M 187.546875 93.933594 L 190.183594 93.933594 C 190.183594 92.453125 188.113281 91.808594 186.195312 91.808594 C 183.914062 91.808594 181.980469 92.65625 182.101562 94.074219 L 182.101562 94.0625 C 182.304688 95.542969 184.359375 95.773438 186.089844 95.875 C 186.488281 95.902344 187.714844 95.921875 187.714844 96.378906 C 187.714844 96.75 187.023438 96.894531 186.164062 96.894531 C 185.570312 96.894531 184.679688 96.777344 184.679688 96.140625 L 182.027344 96.140625 C 182.027344 97.777344 184.402344 98.421875 186.148438 98.421875 C 188.1875 98.421875 190.367188 97.648438 190.367188 96.308594 C 190.367188 96.167969 190.335938 96.003906 190.289062 95.855469 C 189.828125 94.699219 187.914062 94.457031 186.398438 94.339844 C 186.042969 94.320312 184.773438 94.3125 184.773438 93.832031 C 184.773438 93.484375 185.335938 93.269531 186.148438 93.269531 C 186.960938 93.269531 187.546875 93.503906 187.546875 93.933594 Z M 187.546875 93.933594 "/>
<path style=" stroke:none;fill-rule:nonzero;fill:rgb(32.941176%,32.941176%,32.941176%);fill-opacity:1;" d="M 50.433594 101.617188 C 50.433594 101.292969 50.917969 101.175781 51.988281 101.175781 C 53.035156 101.175781 53.59375 101.316406 53.59375 101.726562 L 54.421875 101.769531 C 54.421875 101.332031 53.769531 100.707031 51.988281 100.707031 C 50.257812 100.707031 49.605469 101.160156 49.605469 101.617188 C 49.605469 102.734375 53.644531 102.535156 53.644531 103.011719 C 53.644531 103.257812 53.175781 103.386719 52.015625 103.386719 C 51.050781 103.386719 50.316406 103.300781 50.316406 102.636719 L 49.496094 102.597656 C 49.496094 103.46875 50.433594 103.867188 52.015625 103.867188 C 53.578125 103.867188 54.472656 103.46875 54.472656 103.011719 C 54.472656 101.976562 50.433594 102.222656 50.433594 101.617188 Z M 50.433594 101.617188 "/>
<path style=" stroke:none;fill-rule:nonzero;fill:rgb(32.941176%,32.941176%,32.941176%);fill-opacity:1;" d="M 62.328125 103.824219 L 63.882812 103.824219 C 63.882812 103.824219 63.515625 103.71875 63.515625 103.425781 L 63.515625 100.746094 L 61.941406 100.746094 L 60.210938 103.339844 L 59.699219 103.339844 L 57.96875 100.746094 L 56.390625 100.746094 L 56.390625 103.425781 C 56.390625 103.667969 56.03125 103.824219 56.03125 103.824219 L 57.578125 103.824219 C 57.578125 103.824219 57.21875 103.6875 57.21875 103.425781 L 57.21875 101.222656 L 57.425781 101.222656 L 59.15625 103.824219 L 60.753906 103.820312 L 62.480469 101.222656 L 62.6875 101.222656 L 62.6875 103.425781 C 62.6875 103.707031 62.328125 103.824219 62.328125 103.824219 Z M 62.328125 103.824219 "/>
<path style=" stroke:none;fill-rule:nonzero;fill:rgb(32.941176%,32.941176%,32.941176%);fill-opacity:1;" d="M 69.464844 103.824219 L 71.542969 103.824219 C 71.542969 103.824219 71.09375 103.707031 70.816406 103.367188 L 69.078125 100.746094 L 67.621094 100.746094 L 65.882812 103.367188 C 65.613281 103.707031 65.164062 103.824219 65.164062 103.824219 L 67.238281 103.824219 C 67.238281 103.824219 66.660156 103.574219 66.746094 103.410156 L 67.144531 102.8125 L 69.554688 102.8125 L 69.949219 103.410156 C 70.039062 103.574219 69.464844 103.824219 69.464844 103.824219 Z M 67.464844 102.328125 L 68.199219 101.222656 L 68.5 101.222656 L 69.238281 102.328125 Z M 67.464844 102.328125 "/>
<path style=" stroke:none;fill-rule:nonzero;fill:rgb(32.941176%,32.941176%,32.941176%);fill-opacity:1;" d="M 77.324219 103.230469 L 76.546875 102.628906 C 77.308594 102.597656 77.902344 102.25 77.902344 101.632812 C 77.902344 101.140625 77.234375 100.742188 76.421875 100.742188 L 72.816406 100.742188 C 72.816406 100.742188 73.175781 100.882812 73.175781 101.175781 L 73.175781 103.425781 C 73.175781 103.695312 72.816406 103.820312 72.816406 103.820312 L 74.363281 103.820312 C 74.363281 103.820312 74.003906 103.695312 74.003906 103.425781 L 74.003906 102.632812 L 75.617188 102.632812 L 76.554688 103.363281 C 76.929688 103.652344 77.902344 103.820312 78.511719 103.820312 L 78.511719 103.574219 C 78.042969 103.574219 77.609375 103.449219 77.324219 103.230469 Z M 74.003906 102.152344 L 74.003906 101.53125 C 74.003906 101.363281 74.238281 101.222656 74.523438 101.222656 L 76.023438 101.222656 C 76.695312 101.222656 77.191406 101.460938 77.054688 101.792969 C 76.964844 102.007812 76.460938 102.152344 75.953125 102.152344 Z M 74.003906 102.152344 "/>
<path style=" stroke:none;fill-rule:nonzero;fill:rgb(32.941176%,32.941176%,32.941176%);fill-opacity:1;" d="M 85.203125 100.757812 L 85.203125 100.742188 L 80.027344 100.742188 L 80.027344 100.757812 L 79.769531 101.730469 C 79.769531 101.730469 80.472656 101.222656 80.738281 101.222656 L 81.839844 101.222656 C 82.058594 101.292969 82.199219 101.351562 82.199219 101.503906 L 82.199219 103.425781 C 82.199219 103.707031 81.839844 103.820312 81.839844 103.820312 L 83.394531 103.820312 C 83.394531 103.820312 83.027344 103.691406 83.027344 103.425781 L 83.027344 101.503906 C 83.027344 101.355469 83.164062 101.292969 83.394531 101.222656 L 84.484375 101.222656 C 84.746094 101.222656 85.457031 101.730469 85.457031 101.730469 Z M 85.203125 100.757812 "/>
<path style=" stroke:none;fill-rule:nonzero;fill:rgb(32.941176%,32.941176%,32.941176%);fill-opacity:1;" d="M 91.117188 101.617188 C 91.117188 101.292969 91.601562 101.175781 92.671875 101.175781 C 93.71875 101.175781 94.277344 101.316406 94.277344 101.726562 L 95.105469 101.769531 C 95.105469 101.332031 94.453125 100.707031 92.671875 100.707031 C 90.941406 100.707031 90.289062 101.160156 90.289062 101.617188 C 90.289062 102.734375 94.328125 102.535156 94.328125 103.011719 C 94.328125 103.257812 93.859375 103.386719 92.699219 103.386719 C 91.734375 103.386719 91 103.300781 91 102.636719 L 90.179688 102.597656 C 90.179688 103.46875 91.117188 103.867188 92.699219 103.867188 C 94.261719 103.867188 95.15625 103.46875 95.15625 103.011719 C 95.15625 101.976562 91.117188 102.222656 91.117188 101.617188 Z M 91.117188 101.617188 "/>
<path style=" stroke:none;fill-rule:nonzero;fill:rgb(32.941176%,32.941176%,32.941176%);fill-opacity:1;" d="M 99.566406 101.175781 C 100.785156 101.175781 101.582031 101.65625 101.582031 102.285156 C 101.582031 102.90625 100.785156 103.386719 99.566406 103.386719 C 98.351562 103.386719 97.550781 102.855469 97.550781 102.285156 C 97.550781 101.671875 98.351562 101.175781 99.566406 101.175781 Z M 96.730469 102.285156 C 96.730469 103.265625 98.109375 103.867188 99.566406 103.867188 C 101.023438 103.867188 102.40625 103.242188 102.40625 102.285156 C 102.40625 101.324219 101.023438 100.699219 99.566406 100.699219 C 98.109375 100.699219 96.730469 101.300781 96.730469 102.285156 Z M 96.730469 102.285156 "/>
<path style=" stroke:none;fill-rule:nonzero;fill:rgb(32.941176%,32.941176%,32.941176%);fill-opacity:1;" d="M 108.230469 100.742188 L 103.921875 100.742188 C 103.921875 100.742188 104.28125 100.910156 104.28125 101.136719 L 104.28125 103.425781 C 104.28125 103.683594 103.921875 103.820312 103.921875 103.820312 L 105.46875 103.820312 C 105.46875 103.820312 105.109375 103.6875 105.109375 103.425781 L 105.109375 102.496094 L 106.683594 102.496094 C 107.035156 102.496094 107.359375 102.636719 107.359375 102.636719 L 107.359375 101.886719 C 107.359375 101.886719 107.011719 102.011719 106.683594 102.011719 L 105.109375 102.011719 L 105.109375 101.535156 C 105.109375 101.363281 105.34375 101.222656 105.625 101.222656 L 107.511719 101.222656 C 107.773438 101.222656 108.566406 101.730469 108.566406 101.730469 Z M 108.230469 100.742188 "/>
<path style=" stroke:none;fill-rule:nonzero;fill:rgb(32.941176%,32.941176%,32.941176%);fill-opacity:1;" d="M 115.289062 100.757812 L 115.289062 100.742188 L 110.113281 100.742188 L 110.113281 100.757812 L 109.855469 101.730469 C 109.855469 101.730469 110.558594 101.222656 110.824219 101.222656 L 111.925781 101.222656 C 112.144531 101.292969 112.285156 101.351562 112.285156 101.503906 L 112.285156 103.425781 C 112.285156 103.707031 111.925781 103.820312 111.925781 103.820312 L 113.480469 103.820312 C 113.480469 103.820312 113.113281 103.691406 113.113281 103.425781 L 113.113281 101.503906 C 113.113281 101.355469 113.25 101.292969 113.480469 101.222656 L 114.570312 101.222656 C 114.832031 101.222656 115.542969 101.730469 115.542969 101.730469 Z M 115.289062 100.757812 "/>
<path style=" stroke:none;fill-rule:nonzero;fill:rgb(32.941176%,32.941176%,32.941176%);fill-opacity:1;" d="M 124.714844 100.742188 C 124.714844 100.742188 125.378906 100.929688 125.261719 101.144531 L 124.113281 103.339844 L 123.886719 103.339844 L 122.523438 100.742188 L 120.941406 100.742188 L 119.574219 103.339844 L 119.355469 103.339844 L 118.207031 101.144531 C 118.089844 100.929688 118.753906 100.742188 118.753906 100.742188 L 116.671875 100.742188 C 116.671875 100.742188 117.144531 100.863281 117.347656 101.152344 L 118.738281 103.820312 L 120.191406 103.820312 L 121.554688 101.222656 L 121.90625 101.222656 L 123.269531 103.820312 L 124.730469 103.820312 L 126.121094 101.152344 C 126.324219 100.863281 126.796875 100.742188 126.796875 100.742188 Z M 124.714844 100.742188 "/>
<path style=" stroke:none;fill-rule:nonzero;fill:rgb(32.941176%,32.941176%,32.941176%);fill-opacity:1;" d="M 132.097656 103.824219 L 134.175781 103.824219 C 134.175781 103.824219 133.726562 103.707031 133.449219 103.367188 L 131.710938 100.746094 L 130.253906 100.746094 L 128.515625 103.367188 C 128.246094 103.707031 127.796875 103.824219 127.796875 103.824219 L 129.871094 103.824219 C 129.871094 103.824219 129.292969 103.574219 129.378906 103.410156 L 129.777344 102.8125 L 132.1875 102.8125 L 132.582031 103.410156 C 132.671875 103.574219 132.097656 103.824219 132.097656 103.824219 Z M 130.097656 102.328125 L 130.832031 101.222656 L 131.132812 101.222656 L 131.871094 102.328125 Z M 130.097656 102.328125 "/>
<path style=" stroke:none;fill-rule:nonzero;fill:rgb(32.941176%,32.941176%,32.941176%);fill-opacity:1;" d="M 139.957031 103.230469 L 139.179688 102.628906 C 139.941406 102.597656 140.535156 102.25 140.535156 101.632812 C 140.535156 101.140625 139.867188 100.742188 139.054688 100.742188 L 135.449219 100.742188 C 135.449219 100.742188 135.808594 100.882812 135.808594 101.175781 L 135.808594 103.425781 C 135.808594 103.695312 135.449219 103.820312 135.449219 103.820312 L 136.996094 103.820312 C 136.996094 103.820312 136.636719 103.695312 136.636719 103.425781 L 136.636719 102.632812 L 138.25 102.632812 L 139.1875 103.363281 C 139.5625 103.652344 140.535156 103.820312 141.144531 103.820312 L 141.144531 103.574219 C 140.675781 103.574219 140.242188 103.449219 139.957031 103.230469 Z M 136.636719 102.152344 L 136.636719 101.53125 C 136.636719 101.363281 136.871094 101.222656 137.15625 101.222656 L 138.65625 101.222656 C 139.328125 101.222656 139.824219 101.460938 139.6875 101.792969 C 139.597656 102.007812 139.09375 102.152344 138.585938 102.152344 Z M 136.636719 102.152344 "/>
<path style=" stroke:none;fill-rule:nonzero;fill:rgb(32.941176%,32.941176%,32.941176%);fill-opacity:1;" d="M 146.289062 103.339844 L 144.214844 103.339844 C 143.933594 103.339844 143.699219 103.203125 143.699219 103.03125 L 143.699219 102.496094 L 145.277344 102.496094 C 145.570312 102.496094 145.957031 102.636719 145.957031 102.636719 L 145.957031 101.886719 C 145.957031 101.886719 145.550781 102.011719 145.277344 102.011719 L 143.699219 102.011719 L 143.699219 101.535156 C 143.699219 101.363281 143.933594 101.222656 144.222656 101.222656 L 146.105469 101.222656 C 146.371094 101.222656 147.160156 101.730469 147.160156 101.730469 L 146.75 100.746094 L 142.511719 100.746094 C 142.511719 100.746094 142.871094 100.898438 142.871094 101.136719 L 142.871094 103.417969 C 142.871094 103.691406 142.511719 103.824219 142.511719 103.824219 L 147.007812 103.824219 L 147.335938 102.753906 C 147.335938 102.753906 146.542969 103.339844 146.289062 103.339844 Z M 146.289062 103.339844 "/>
<path style=" stroke:none;fill-rule:nonzero;fill:rgb(32.941176%,32.941176%,32.941176%);fill-opacity:1;" d="M 156.390625 102.160156 C 156.761719 102.007812 156.953125 101.792969 156.945312 101.449219 C 156.945312 101.054688 156.316406 100.746094 155.664062 100.746094 L 152.136719 100.746094 C 152.136719 100.746094 152.496094 100.839844 152.496094 101.136719 L 152.496094 103.425781 C 152.496094 103.695312 152.136719 103.824219 152.136719 103.824219 L 155.742188 103.824219 C 156.476562 103.824219 157.171875 103.472656 157.171875 103.03125 C 157.164062 102.621094 156.902344 102.324219 156.390625 102.160156 Z M 155.257812 101.222656 C 155.851562 101.222656 156.242188 101.410156 156.058594 101.726562 C 155.957031 101.90625 155.570312 101.9375 155.203125 101.9375 L 153.324219 101.9375 L 153.324219 101.554688 C 153.324219 101.375 153.566406 101.222656 153.875 101.222656 Z M 155.320312 103.339844 L 153.835938 103.339844 C 153.550781 103.339844 153.324219 103.203125 153.324219 103.03125 L 153.324219 102.417969 L 155.238281 102.417969 C 155.742188 102.417969 156.21875 102.492188 156.320312 102.785156 C 156.453125 103.15625 155.96875 103.339844 155.320312 103.339844 Z M 155.320312 103.339844 "/>
<path style=" stroke:none;fill-rule:nonzero;fill:rgb(32.941176%,32.941176%,32.941176%);fill-opacity:1;" d="M 162.832031 100.742188 C 162.832031 100.742188 163.199219 100.851562 163.199219 101.136719 L 163.199219 102.425781 C 163.199219 103.160156 162.699219 103.386719 161.527344 103.386719 C 160.359375 103.386719 159.855469 103.160156 159.855469 102.425781 L 159.855469 101.136719 C 159.855469 100.878906 160.214844 100.742188 160.214844 100.742188 L 158.667969 100.742188 C 158.667969 100.742188 159.027344 100.855469 159.027344 101.136719 L 159.027344 102.488281 C 159.027344 103.578125 160.25 103.867188 161.527344 103.867188 C 162.792969 103.867188 164.027344 103.578125 164.027344 102.488281 L 164.019531 101.136719 C 164.019531 100.851562 164.386719 100.742188 164.386719 100.742188 Z M 162.832031 100.742188 "/>
<path style=" stroke:none;fill-rule:nonzero;fill:rgb(32.941176%,32.941176%,32.941176%);fill-opacity:1;" d="M 167 101.136719 C 167 100.839844 167.359375 100.742188 167.359375 100.742188 L 165.8125 100.742188 C 165.8125 100.742188 166.171875 100.871094 166.171875 101.136719 L 166.171875 103.425781 C 166.171875 103.691406 165.8125 103.820312 165.8125 103.820312 L 167.359375 103.820312 C 167.359375 103.820312 167 103.691406 167 103.425781 Z M 167 101.136719 "/>
<path style=" stroke:none;fill-rule:nonzero;fill:rgb(32.941176%,32.941176%,32.941176%);fill-opacity:1;" d="M 172.636719 103.339844 L 170.5625 103.339844 C 170.285156 103.339844 170.058594 103.203125 170.058594 103.035156 C 170.058594 103.035156 170.058594 103.035156 170.058594 103.03125 L 170.058594 100.742188 L 168.871094 100.742188 C 168.871094 100.742188 169.230469 100.878906 169.230469 101.136719 L 169.230469 103.425781 C 169.230469 103.652344 168.871094 103.824219 168.871094 103.824219 L 173.40625 103.820312 L 173.421875 103.820312 L 173.679688 102.753906 C 173.679688 102.753906 172.894531 103.339844 172.636719 103.339844 Z M 172.636719 103.339844 "/>
<path style=" stroke:none;fill-rule:nonzero;fill:rgb(32.941176%,32.941176%,32.941176%);fill-opacity:1;" d="M 177.761719 100.746094 L 175.097656 100.746094 C 175.097656 100.746094 175.457031 100.878906 175.457031 101.136719 L 175.457031 103.425781 C 175.457031 103.695312 175.097656 103.824219 175.097656 103.824219 L 177.847656 103.824219 C 179.324219 103.824219 180.539062 103.167969 180.539062 102.179688 C 180.539062 101.363281 179.125 100.746094 177.761719 100.746094 Z M 177.644531 103.339844 L 176.816406 103.339844 C 176.527344 103.339844 176.292969 103.199219 176.292969 103.023438 L 176.292969 101.550781 C 176.292969 101.371094 176.535156 101.222656 176.835938 101.222656 L 177.644531 101.222656 C 178.824219 101.222656 179.710938 101.625 179.710938 102.28125 C 179.710938 102.914062 178.824219 103.339844 177.644531 103.339844 Z M 177.644531 103.339844 "/>
<path style=" stroke:none;fill-rule:nonzero;fill:rgb(32.941176%,32.941176%,32.941176%);fill-opacity:1;" d="M 185.835938 103.339844 L 183.761719 103.339844 C 183.484375 103.339844 183.25 103.203125 183.25 103.03125 L 183.25 102.496094 L 184.824219 102.496094 C 185.117188 102.496094 185.507812 102.636719 185.507812 102.636719 L 185.507812 101.886719 C 185.507812 101.886719 185.097656 102.011719 184.824219 102.011719 L 183.25 102.011719 L 183.25 101.535156 C 183.25 101.363281 183.484375 101.222656 183.769531 101.222656 L 185.652344 101.222656 C 185.917969 101.222656 186.710938 101.730469 186.710938 101.730469 L 186.296875 100.746094 L 182.0625 100.746094 C 182.0625 100.746094 182.421875 100.898438 182.421875 101.136719 L 182.421875 103.417969 C 182.421875 103.691406 182.0625 103.824219 182.0625 103.824219 L 186.554688 103.824219 L 186.882812 102.753906 C 186.882812 102.753906 186.09375 103.339844 185.835938 103.339844 Z M 185.835938 103.339844 "/>
<path style=" stroke:none;fill-rule:nonzero;fill:rgb(32.941176%,32.941176%,32.941176%);fill-opacity:1;" d="M 192.917969 103.230469 L 192.140625 102.628906 C 192.902344 102.597656 193.496094 102.25 193.496094 101.632812 C 193.496094 101.140625 192.828125 100.742188 192.015625 100.742188 L 188.410156 100.742188 C 188.410156 100.742188 188.769531 100.882812 188.769531 101.175781 L 188.769531 103.425781 C 188.769531 103.695312 188.410156 103.820312 188.410156 103.820312 L 189.957031 103.820312 C 189.957031 103.820312 189.597656 103.695312 189.597656 103.425781 L 189.597656 102.632812 L 191.210938 102.632812 L 192.148438 103.363281 C 192.523438 103.652344 193.496094 103.820312 194.105469 103.820312 L 194.105469 103.574219 C 193.636719 103.574219 193.203125 103.449219 192.917969 103.230469 Z M 189.597656 102.152344 L 189.597656 101.53125 C 189.597656 101.363281 189.832031 101.222656 190.117188 101.222656 L 191.617188 101.222656 C 192.289062 101.222656 192.785156 101.460938 192.648438 101.792969 C 192.558594 102.007812 192.054688 102.152344 191.546875 102.152344 Z M 189.597656 102.152344 "/>
<path style=" stroke:none;fill-rule:nonzero;fill:rgb(32.941176%,32.941176%,32.941176%);fill-opacity:1;" d="M 196.457031 101.617188 C 196.457031 101.292969 196.941406 101.175781 198.011719 101.175781 C 199.058594 101.175781 199.617188 101.316406 199.617188 101.726562 L 200.445312 101.769531 C 200.445312 101.332031 199.792969 100.707031 198.011719 100.707031 C 196.28125 100.707031 195.628906 101.160156 195.628906 101.617188 C 195.628906 102.734375 199.667969 102.535156 199.667969 103.011719 C 199.667969 103.257812 199.199219 103.386719 198.039062 103.386719 C 197.074219 103.386719 196.339844 103.300781 196.339844 102.636719 L 195.519531 102.597656 C 195.519531 103.46875 196.457031 103.867188 198.039062 103.867188 C 199.601562 103.867188 200.496094 103.46875 200.496094 103.011719 C 200.496094 101.976562 196.457031 102.222656 196.457031 101.617188 Z M 196.457031 101.617188 "/>
</g>
</svg>
