<svg xmlns="http://www.w3.org/2000/svg" xmlns:xlink="http://www.w3.org/1999/xlink" width="500" zoomAndPan="magnify" viewBox="0 0 375 374.999991" height="500" preserveAspectRatio="xMidYMid meet" version="1.0"><defs><g/><clipPath id="id1"><path d="M 154 112.253906 L 221 112.253906 L 221 156 L 154 156 Z M 154 112.253906 " clip-rule="nonzero"/></clipPath><clipPath id="id2"><path d="M 181 127 L 246.921875 127 L 246.921875 171 L 181 171 Z M 181 127 " clip-rule="nonzero"/></clipPath><clipPath id="id3"><path d="M 207 142 L 235 142 L 235 216.503906 L 207 216.503906 Z M 207 142 " clip-rule="nonzero"/></clipPath><clipPath id="id4"><path d="M 154 173 L 221 173 L 221 216.503906 L 154 216.503906 Z M 154 173 " clip-rule="nonzero"/></clipPath><clipPath id="id5"><path d="M 128.421875 158 L 194 158 L 194 202 L 128.421875 202 Z M 128.421875 158 " clip-rule="nonzero"/></clipPath><clipPath id="id6"><path d="M 141 112.253906 L 168 112.253906 L 168 186 L 141 186 Z M 141 112.253906 " clip-rule="nonzero"/></clipPath></defs><g clip-path="url(#id1)"><path fill="#2aa873" d="M 165.617188 153.535156 C 166.75 152.398438 167.453125 150.835938 167.453125 149.105469 C 167.453125 147.542969 166.878906 146.113281 165.929688 145.015625 L 180.03125 120.601562 L 208.246094 120.601562 C 208.558594 121.496094 209.070312 122.300781 209.730469 122.957031 C 210.863281 124.089844 212.429688 124.792969 214.160156 124.792969 C 215.886719 124.792969 217.453125 124.089844 218.589844 122.957031 C 219.722656 121.824219 220.421875 120.257812 220.421875 118.53125 C 220.421875 116.800781 219.722656 115.234375 218.589844 114.101562 C 217.453125 112.96875 215.890625 112.265625 214.160156 112.265625 C 212.429688 112.265625 210.863281 112.96875 209.730469 114.101562 C 209.070312 114.757812 208.558594 115.5625 208.246094 116.460938 L 177.660156 116.460938 L 177.058594 117.503906 L 162.359375 142.953125 C 161.980469 142.878906 161.589844 142.84375 161.1875 142.84375 C 159.457031 142.84375 157.890625 143.542969 156.757812 144.675781 C 155.625 145.808594 154.921875 147.375 154.921875 149.105469 C 154.921875 150.835938 155.625 152.398438 156.757812 153.535156 C 157.890625 154.667969 159.457031 155.367188 161.1875 155.367188 C 162.917969 155.367188 164.484375 154.667969 165.617188 153.535156 Z M 159.6875 147.605469 C 160.070312 147.222656 160.601562 146.984375 161.1875 146.984375 C 161.773438 146.984375 162.304688 147.222656 162.6875 147.605469 C 163.074219 147.988281 163.308594 148.519531 163.308594 149.105469 C 163.308594 149.691406 163.074219 150.222656 162.6875 150.605469 C 162.304688 150.988281 161.773438 151.226562 161.1875 151.226562 C 160.601562 151.226562 160.070312 150.988281 159.6875 150.605469 C 159.300781 150.222656 159.0625 149.691406 159.0625 149.105469 C 159.0625 148.519531 159.300781 147.988281 159.6875 147.605469 Z M 212.660156 117.03125 C 213.042969 116.644531 213.574219 116.410156 214.160156 116.410156 C 214.746094 116.410156 215.277344 116.644531 215.660156 117.03125 C 216.042969 117.414062 216.28125 117.945312 216.28125 118.53125 C 216.28125 119.117188 216.042969 119.648438 215.660156 120.03125 C 215.277344 120.414062 214.746094 120.652344 214.160156 120.652344 C 213.574219 120.652344 213.042969 120.414062 212.660156 120.03125 C 212.273438 119.648438 212.035156 119.117188 212.035156 118.53125 C 212.035156 117.945312 212.273438 117.414062 212.660156 117.03125 " fill-opacity="1" fill-rule="evenodd"/></g><g clip-path="url(#id2)"><path fill="#57c59a" d="M 183.242188 138.246094 C 184.378906 139.378906 185.945312 140.082031 187.671875 140.082031 C 189.402344 140.082031 190.96875 139.378906 192.101562 138.246094 C 192.761719 137.589844 193.273438 136.785156 193.585938 135.886719 L 221.804688 135.886719 L 235.902344 160.300781 C 234.953125 161.398438 234.378906 162.828125 234.378906 164.394531 C 234.378906 166.121094 235.082031 167.6875 236.214844 168.820312 C 237.347656 169.953125 238.914062 170.65625 240.644531 170.65625 C 242.375 170.65625 243.941406 169.953125 245.074219 168.820312 C 246.207031 167.6875 246.910156 166.121094 246.910156 164.394531 C 246.910156 162.664062 246.207031 161.097656 245.074219 159.964844 C 243.941406 158.832031 242.375 158.128906 240.644531 158.128906 C 240.246094 158.128906 239.851562 158.167969 239.472656 158.238281 L 224.777344 132.789062 L 224.171875 131.746094 L 193.585938 131.746094 C 193.273438 130.851562 192.761719 130.046875 192.101562 129.390625 C 190.96875 128.257812 189.402344 127.554688 187.671875 127.554688 C 185.945312 127.554688 184.378906 128.257812 183.242188 129.390625 C 182.109375 130.523438 181.410156 132.089844 181.410156 133.816406 C 181.410156 135.546875 182.109375 137.113281 183.242188 138.246094 Z M 186.171875 135.320312 C 185.789062 134.933594 185.550781 134.402344 185.550781 133.816406 C 185.550781 133.230469 185.789062 132.703125 186.171875 132.316406 C 186.554688 131.933594 187.085938 131.695312 187.671875 131.695312 C 188.257812 131.695312 188.789062 131.933594 189.175781 132.316406 C 189.558594 132.703125 189.796875 133.230469 189.796875 133.816406 C 189.796875 134.402344 189.558594 134.933594 189.175781 135.320312 C 188.789062 135.703125 188.257812 135.941406 187.671875 135.941406 C 187.085938 135.941406 186.554688 135.703125 186.171875 135.320312 Z M 239.144531 162.890625 C 239.527344 162.507812 240.058594 162.269531 240.644531 162.269531 C 241.230469 162.269531 241.761719 162.507812 242.144531 162.890625 C 242.53125 163.277344 242.769531 163.804688 242.769531 164.394531 C 242.769531 164.980469 242.53125 165.511719 242.144531 165.894531 C 241.761719 166.277344 241.230469 166.515625 240.644531 166.515625 C 240.058594 166.515625 239.527344 166.277344 239.144531 165.894531 C 238.761719 165.511719 238.523438 164.980469 238.523438 164.394531 C 238.523438 163.804688 238.761719 163.277344 239.144531 162.890625 " fill-opacity="1" fill-rule="evenodd"/></g><g clip-path="url(#id3)"><path fill="#6bcca6" d="M 207.894531 149.105469 C 207.894531 150.835938 208.59375 152.398438 209.730469 153.535156 C 210.863281 154.667969 212.429688 155.367188 214.160156 155.367188 C 214.558594 155.367188 214.953125 155.332031 215.332031 155.257812 L 229.433594 179.679688 L 215.332031 204.101562 C 214.953125 204.03125 214.558594 203.992188 214.160156 203.992188 C 212.429688 203.992188 210.863281 204.695312 209.730469 205.828125 C 208.59375 206.960938 207.894531 208.527344 207.894531 210.253906 C 207.894531 211.984375 208.59375 213.550781 209.730469 214.683594 C 210.863281 215.816406 212.429688 216.519531 214.160156 216.519531 C 215.890625 216.519531 217.453125 215.816406 218.589844 214.683594 C 219.722656 213.550781 220.421875 211.984375 220.421875 210.253906 C 220.421875 208.691406 219.851562 207.261719 218.902344 206.164062 L 233.605469 180.707031 L 234.195312 179.679688 L 233.605469 178.652344 L 218.902344 153.195312 C 219.851562 152.097656 220.421875 150.667969 220.421875 149.105469 C 220.421875 147.375 219.722656 145.808594 218.589844 144.675781 C 217.453125 143.542969 215.886719 142.84375 214.160156 142.84375 C 212.429688 142.84375 210.863281 143.542969 209.730469 144.675781 C 208.59375 145.808594 207.894531 147.375 207.894531 149.105469 Z M 214.160156 151.226562 C 213.574219 151.226562 213.042969 150.988281 212.660156 150.605469 C 212.273438 150.222656 212.035156 149.691406 212.035156 149.105469 C 212.035156 148.519531 212.273438 147.988281 212.660156 147.605469 C 213.042969 147.222656 213.574219 146.984375 214.160156 146.984375 C 214.746094 146.984375 215.277344 147.222656 215.660156 147.605469 C 216.042969 147.988281 216.28125 148.519531 216.28125 149.105469 C 216.28125 149.691406 216.042969 150.222656 215.660156 150.605469 C 215.277344 150.988281 214.746094 151.226562 214.160156 151.226562 Z M 212.660156 208.753906 C 213.042969 208.371094 213.574219 208.132812 214.160156 208.132812 C 214.746094 208.132812 215.277344 208.371094 215.660156 208.753906 C 216.042969 209.140625 216.28125 209.667969 216.28125 210.253906 C 216.28125 210.839844 216.042969 211.371094 215.660156 211.757812 C 215.277344 212.140625 214.746094 212.378906 214.160156 212.378906 C 213.574219 212.378906 213.042969 212.140625 212.660156 211.757812 C 212.273438 211.371094 212.035156 210.839844 212.035156 210.253906 C 212.035156 209.667969 212.273438 209.140625 212.660156 208.753906 " fill-opacity="1" fill-rule="evenodd"/></g><g clip-path="url(#id4)"><path fill="#96dbbe" d="M 214.160156 173.417969 C 212.429688 173.417969 210.863281 174.117188 209.730469 175.25 C 208.59375 176.386719 207.894531 177.949219 207.894531 179.679688 C 207.894531 181.242188 208.46875 182.675781 209.417969 183.773438 L 195.316406 208.183594 L 167.101562 208.183594 C 166.789062 207.289062 166.273438 206.484375 165.617188 205.828125 C 164.484375 204.695312 162.917969 203.992188 161.1875 203.992188 C 159.457031 203.992188 157.890625 204.695312 156.757812 205.828125 C 155.625 206.960938 154.921875 208.527344 154.921875 210.253906 C 154.921875 211.984375 155.625 213.550781 156.757812 214.683594 C 157.890625 215.816406 159.457031 216.519531 161.1875 216.519531 C 162.917969 216.519531 164.484375 215.816406 165.617188 214.683594 C 166.273438 214.027344 166.789062 213.222656 167.101562 212.324219 L 197.6875 212.324219 L 198.289062 211.28125 L 212.984375 185.832031 C 213.367188 185.90625 213.757812 185.941406 214.160156 185.941406 C 215.886719 185.941406 217.453125 185.242188 218.589844 184.109375 C 219.722656 182.976562 220.421875 181.410156 220.421875 179.679688 C 220.421875 177.949219 219.722656 176.386719 218.589844 175.25 C 217.453125 174.117188 215.886719 173.417969 214.160156 173.417969 Z M 212.035156 179.679688 C 212.035156 179.09375 212.273438 178.5625 212.660156 178.179688 C 213.042969 177.796875 213.574219 177.558594 214.160156 177.558594 C 214.746094 177.558594 215.277344 177.796875 215.660156 178.179688 C 216.042969 178.5625 216.28125 179.09375 216.28125 179.679688 C 216.28125 180.265625 216.042969 180.796875 215.660156 181.179688 C 215.277344 181.566406 214.746094 181.804688 214.160156 181.804688 C 213.574219 181.804688 213.042969 181.566406 212.660156 181.179688 C 212.273438 180.796875 212.035156 180.265625 212.035156 179.679688 Z M 159.6875 208.753906 C 160.070312 208.371094 160.601562 208.132812 161.1875 208.132812 C 161.773438 208.132812 162.304688 208.371094 162.6875 208.753906 C 163.074219 209.140625 163.308594 209.667969 163.308594 210.253906 C 163.308594 210.839844 163.074219 211.371094 162.6875 211.757812 C 162.304688 212.140625 161.773438 212.378906 161.1875 212.378906 C 160.601562 212.378906 160.070312 212.140625 159.6875 211.757812 C 159.300781 211.371094 159.0625 210.839844 159.0625 210.253906 C 159.0625 209.667969 159.300781 209.140625 159.6875 208.753906 " fill-opacity="1" fill-rule="evenodd"/></g><g clip-path="url(#id5)"><path fill="#116246" d="M 192.101562 190.539062 C 190.96875 189.40625 189.402344 188.703125 187.671875 188.703125 C 185.945312 188.703125 184.378906 189.40625 183.242188 190.539062 C 182.585938 191.199219 182.074219 192 181.757812 192.898438 L 153.542969 192.898438 L 139.445312 168.484375 C 140.390625 167.386719 140.964844 165.957031 140.964844 164.394531 C 140.964844 162.664062 140.265625 161.097656 139.128906 159.964844 C 137.996094 158.832031 136.429688 158.128906 134.703125 158.128906 C 132.972656 158.128906 131.40625 158.832031 130.269531 159.964844 C 129.136719 161.097656 128.4375 162.664062 128.4375 164.394531 C 128.4375 166.121094 129.136719 167.6875 130.269531 168.820312 C 131.40625 169.953125 132.972656 170.65625 134.703125 170.65625 C 135.101562 170.65625 135.492188 170.617188 135.875 170.546875 L 150.570312 195.996094 L 151.171875 197.039062 L 181.757812 197.039062 C 182.074219 197.9375 182.585938 198.738281 183.242188 199.394531 C 184.378906 200.53125 185.945312 201.230469 187.671875 201.230469 C 189.402344 201.230469 190.96875 200.53125 192.101562 199.394531 C 193.238281 198.261719 193.9375 196.695312 193.9375 194.96875 C 193.9375 193.238281 193.238281 191.671875 192.101562 190.539062 Z M 186.171875 193.46875 C 186.554688 193.082031 187.085938 192.847656 187.671875 192.847656 C 188.257812 192.847656 188.789062 193.082031 189.175781 193.46875 C 189.558594 193.851562 189.796875 194.382812 189.796875 194.96875 C 189.796875 195.554688 189.558594 196.085938 189.175781 196.46875 C 188.789062 196.851562 188.257812 197.089844 187.671875 197.089844 C 187.085938 197.089844 186.554688 196.851562 186.171875 196.46875 C 185.789062 196.085938 185.550781 195.554688 185.550781 194.96875 C 185.550781 194.382812 185.789062 193.851562 186.171875 193.46875 Z M 136.203125 162.890625 C 136.585938 163.277344 136.824219 163.804688 136.824219 164.394531 C 136.824219 164.980469 136.585938 165.511719 136.203125 165.894531 C 135.816406 166.277344 135.289062 166.515625 134.703125 166.515625 C 134.113281 166.515625 133.582031 166.277344 133.199219 165.894531 C 132.816406 165.511719 132.578125 164.980469 132.578125 164.394531 C 132.578125 163.804688 132.816406 163.277344 133.199219 162.890625 C 133.582031 162.507812 134.113281 162.269531 134.703125 162.269531 C 135.289062 162.269531 135.816406 162.507812 136.203125 162.890625 " fill-opacity="1" fill-rule="evenodd"/></g><g clip-path="url(#id6)"><path fill="#22755b" d="M 167.453125 179.679688 C 167.453125 177.949219 166.75 176.386719 165.617188 175.25 C 164.484375 174.117188 162.917969 173.417969 161.1875 173.417969 C 160.789062 173.417969 160.398438 173.453125 160.019531 173.527344 L 145.914062 149.101562 L 160.015625 124.683594 C 160.394531 124.753906 160.785156 124.792969 161.1875 124.792969 C 162.917969 124.792969 164.484375 124.089844 165.617188 122.957031 C 166.75 121.824219 167.453125 120.257812 167.453125 118.53125 C 167.453125 116.800781 166.75 115.234375 165.617188 114.101562 C 164.484375 112.96875 162.917969 112.265625 161.1875 112.265625 C 159.457031 112.265625 157.890625 112.96875 156.757812 114.101562 C 155.625 115.234375 154.921875 116.800781 154.921875 118.53125 C 154.921875 120.09375 155.496094 121.523438 156.445312 122.621094 L 141.742188 148.078125 L 141.144531 149.109375 L 141.742188 150.140625 L 156.441406 175.59375 C 155.496094 176.691406 154.921875 178.117188 154.921875 179.679688 C 154.921875 181.410156 155.625 182.976562 156.757812 184.109375 C 157.890625 185.242188 159.457031 185.941406 161.1875 185.941406 C 162.917969 185.941406 164.484375 185.242188 165.617188 184.109375 C 166.75 182.976562 167.453125 181.410156 167.453125 179.679688 Z M 159.6875 178.179688 C 160.070312 177.796875 160.601562 177.558594 161.1875 177.558594 C 161.773438 177.558594 162.304688 177.796875 162.6875 178.179688 C 163.074219 178.5625 163.308594 179.09375 163.308594 179.679688 C 163.308594 180.265625 163.074219 180.796875 162.6875 181.179688 C 162.304688 181.566406 161.773438 181.804688 161.1875 181.804688 C 160.601562 181.804688 160.070312 181.566406 159.6875 181.179688 C 159.300781 180.796875 159.0625 180.265625 159.0625 179.679688 C 159.0625 179.09375 159.300781 178.5625 159.6875 178.179688 Z M 161.1875 120.652344 C 160.601562 120.652344 160.070312 120.414062 159.6875 120.03125 C 159.300781 119.648438 159.0625 119.117188 159.0625 118.53125 C 159.0625 117.945312 159.300781 117.414062 159.6875 117.03125 C 160.070312 116.644531 160.601562 116.410156 161.1875 116.410156 C 161.773438 116.410156 162.304688 116.644531 162.6875 117.03125 C 163.074219 117.414062 163.308594 117.945312 163.308594 118.53125 C 163.308594 119.117188 163.074219 119.648438 162.6875 120.03125 C 162.304688 120.414062 161.773438 120.652344 161.1875 120.652344 " fill-opacity="1" fill-rule="evenodd"/></g><g fill="#106246" fill-opacity="1"><g transform="translate(88.403298, 245.848784)"><g><path d="M 9.128906 -11.015625 L 13.085938 -11.015625 C 13.085938 -14.71875 9.980469 -16.328125 7.105469 -16.328125 C 3.679688 -16.328125 0.78125 -14.210938 0.964844 -10.667969 L 0.964844 -10.691406 C 1.265625 -6.992188 4.347656 -6.414062 6.945312 -6.164062 C 7.542969 -6.09375 9.382812 -6.046875 9.382812 -4.898438 C 9.382812 -3.976562 8.347656 -3.609375 7.058594 -3.609375 C 6.164062 -3.609375 4.828125 -3.910156 4.828125 -5.496094 L 0.851562 -5.496094 C 0.851562 -1.402344 4.414062 0.207031 7.035156 0.207031 C 10.09375 0.207031 13.359375 -1.726562 13.359375 -5.082031 C 13.359375 -5.425781 13.3125 -5.839844 13.246094 -6.207031 C 12.554688 -9.105469 9.679688 -9.703125 7.40625 -10.003906 C 6.875 -10.046875 4.96875 -10.070312 4.96875 -11.265625 C 4.96875 -12.140625 5.816406 -12.671875 7.035156 -12.671875 C 8.253906 -12.671875 9.128906 -12.09375 9.128906 -11.015625 Z M 9.128906 -11.015625 "/></g></g></g><g fill="#106246" fill-opacity="1"><g transform="translate(105.096431, 245.848784)"><g><path d="M 1.171875 -8.023438 C 1.171875 -3.289062 4.898438 0.230469 9.496094 0.230469 C 14.097656 0.230469 17.84375 -3.355469 17.84375 -8.023438 C 17.84375 -12.761719 14.097656 -16.347656 9.496094 -16.347656 C 4.898438 -16.347656 1.171875 -12.761719 1.171875 -8.023438 Z M 5.082031 -8.023438 C 5.082031 -11.082031 7.289062 -12.578125 9.496094 -12.578125 C 11.703125 -12.578125 13.890625 -11.0625 13.890625 -8.023438 C 13.890625 -5.011719 11.660156 -3.496094 9.449219 -3.496094 C 7.242188 -3.496094 5.082031 -4.988281 5.082031 -8.023438 Z M 5.082031 -8.023438 "/></g></g></g><g fill="#106246" fill-opacity="1"><g transform="translate(126.411009, 245.848784)"><g><path d="M 11.566406 -12.484375 L 11.566406 -16.234375 L 1.148438 -16.234375 L 1.148438 0 L 5.058594 0 L 5.058594 -5.816406 L 11.199219 -5.816406 L 11.199219 -9.472656 L 5.058594 -9.472656 L 5.058594 -12.484375 Z M 11.566406 -12.484375 "/></g></g></g><g fill="#106246" fill-opacity="1"><g transform="translate(141.287746, 245.848784)"><g><path d="M 13.359375 -16.28125 L 0.757812 -16.28125 L 0.757812 -12.601562 L 5.105469 -12.601562 L 5.105469 0 L 9.035156 0 L 9.035156 -12.601562 L 13.359375 -12.601562 Z M 13.359375 -16.28125 "/></g></g></g><g fill="#106246" fill-opacity="1"><g transform="translate(158.003873, 245.848784)"><g><path d="M 13.703125 0 L 13.703125 -16.097656 L 9.773438 -16.097656 L 9.773438 -10.027344 L 5.082031 -10.027344 L 5.082031 -16.097656 L 1.148438 -16.097656 L 1.148438 0 L 5.082031 0 L 5.082031 -6.230469 L 9.773438 -6.230469 L 9.773438 0 Z M 13.703125 0 "/></g></g></g><g fill="#106246" fill-opacity="1"><g transform="translate(175.386778, 245.848784)"><g><path d="M 7.40625 0.230469 C 10.484375 0.230469 13.566406 -1.5625 13.566406 -5.175781 L 13.566406 -16.097656 L 9.636719 -16.097656 L 9.636719 -5.195312 C 9.636719 -4 8.484375 -3.402344 7.335938 -3.402344 C 6.207031 -3.402344 5.082031 -4 5.082031 -5.195312 L 5.082031 -16.097656 L 1.148438 -16.097656 L 1.148438 -5.175781 C 1.148438 -1.519531 4.277344 0.230469 7.40625 0.230469 Z M 7.40625 0.230469 "/></g></g></g><g fill="#106246" fill-opacity="1"><g transform="translate(192.401795, 245.848784)"><g><path d="M 9.128906 -11.015625 L 13.085938 -11.015625 C 13.085938 -14.71875 9.980469 -16.328125 7.105469 -16.328125 C 3.679688 -16.328125 0.78125 -14.210938 0.964844 -10.667969 L 0.964844 -10.691406 C 1.265625 -6.992188 4.347656 -6.414062 6.945312 -6.164062 C 7.542969 -6.09375 9.382812 -6.046875 9.382812 -4.898438 C 9.382812 -3.976562 8.347656 -3.609375 7.058594 -3.609375 C 6.164062 -3.609375 4.828125 -3.910156 4.828125 -5.496094 L 0.851562 -5.496094 C 0.851562 -1.402344 4.414062 0.207031 7.035156 0.207031 C 10.09375 0.207031 13.359375 -1.726562 13.359375 -5.082031 C 13.359375 -5.425781 13.3125 -5.839844 13.246094 -6.207031 C 12.554688 -9.105469 9.679688 -9.703125 7.40625 -10.003906 C 6.875 -10.046875 4.96875 -10.070312 4.96875 -11.265625 C 4.96875 -12.140625 5.816406 -12.671875 7.035156 -12.671875 C 8.253906 -12.671875 9.128906 -12.09375 9.128906 -11.015625 Z M 9.128906 -11.015625 "/></g></g></g><g fill="#106246" fill-opacity="1"><g transform="translate(209.094924, 245.848784)"><g><path d="M 13.359375 -16.28125 L 0.757812 -16.28125 L 0.757812 -12.601562 L 5.105469 -12.601562 L 5.105469 0 L 9.035156 0 L 9.035156 -12.601562 L 13.359375 -12.601562 Z M 13.359375 -16.28125 "/></g></g></g><g fill="#106246" fill-opacity="1"><g transform="translate(225.811044, 245.848784)"><g><path d="M 1.148438 -16.097656 L 1.148438 0 L 11.84375 0 L 11.84375 -3.792969 L 5.082031 -3.792969 L 5.082031 -16.097656 Z M 1.148438 -16.097656 "/></g></g></g><g fill="#106246" fill-opacity="1"><g transform="translate(240.779755, 245.848784)"><g><path d="M 1.148438 -16.234375 L 1.148438 0 L 11.773438 0 L 11.773438 -3.792969 L 5.105469 -3.792969 L 5.105469 -6.371094 L 11.613281 -6.371094 L 11.613281 -10.1875 L 5.105469 -10.1875 L 5.105469 -12.441406 L 11.75 -12.441406 L 11.75 -16.234375 Z M 1.148438 -16.234375 "/></g></g></g><g fill="#106246" fill-opacity="1"><g transform="translate(255.909404, 245.848784)"><g><path d="M 7.40625 -16.234375 L 1.148438 -16.234375 L 1.148438 0 L 5.058594 0 L 5.058594 -5.449219 L 5.703125 -5.449219 L 9.058594 0 L 13.246094 0 L 13.246094 -0.734375 L 9.796875 -5.839844 C 11.910156 -6.851562 12.945312 -8.921875 12.945312 -10.875 C 12.945312 -13.542969 11.082031 -16.234375 7.40625 -16.234375 Z M 7.3125 -9.015625 L 5.058594 -9.015625 L 5.058594 -12.464844 L 7.3125 -12.464844 C 8.507812 -12.464844 9.105469 -11.566406 9.105469 -10.714844 C 9.105469 -9.886719 8.484375 -9.015625 7.3125 -9.015625 Z M 7.3125 -9.015625 "/></g></g></g><g fill="#106246" fill-opacity="1"><g transform="translate(272.188669, 245.848784)"><g><path d="M 9.128906 -11.015625 L 13.085938 -11.015625 C 13.085938 -14.71875 9.980469 -16.328125 7.105469 -16.328125 C 3.679688 -16.328125 0.78125 -14.210938 0.964844 -10.667969 L 0.964844 -10.691406 C 1.265625 -6.992188 4.347656 -6.414062 6.945312 -6.164062 C 7.542969 -6.09375 9.382812 -6.046875 9.382812 -4.898438 C 9.382812 -3.976562 8.347656 -3.609375 7.058594 -3.609375 C 6.164062 -3.609375 4.828125 -3.910156 4.828125 -5.496094 L 0.851562 -5.496094 C 0.851562 -1.402344 4.414062 0.207031 7.035156 0.207031 C 10.09375 0.207031 13.359375 -1.726562 13.359375 -5.082031 C 13.359375 -5.425781 13.3125 -5.839844 13.246094 -6.207031 C 12.554688 -9.105469 9.679688 -9.703125 7.40625 -10.003906 C 6.875 -10.046875 4.96875 -10.070312 4.96875 -11.265625 C 4.96875 -12.140625 5.816406 -12.671875 7.035156 -12.671875 C 8.253906 -12.671875 9.128906 -12.09375 9.128906 -11.015625 Z M 9.128906 -11.015625 "/></g></g></g><g fill="#545454" fill-opacity="1"><g transform="translate(73.835976, 259.548792)"><g><path d="M 1.8125 -5.507812 C 1.8125 -6.320312 2.539062 -6.609375 4.144531 -6.609375 C 5.71875 -6.609375 6.554688 -6.257812 6.554688 -5.234375 L 7.796875 -5.125 C 7.796875 -6.222656 6.816406 -7.785156 4.144531 -7.785156 C 1.550781 -7.785156 0.570312 -6.652344 0.570312 -5.507812 C 0.570312 -2.714844 6.628906 -3.210938 6.628906 -2.023438 C 6.628906 -1.40625 5.925781 -1.078125 4.1875 -1.078125 C 2.738281 -1.078125 1.636719 -1.296875 1.636719 -2.957031 L 0.40625 -3.054688 C 0.40625 -0.878906 1.8125 0.121094 4.1875 0.121094 C 6.53125 0.121094 7.871094 -0.878906 7.871094 -2.023438 C 7.871094 -4.605469 1.8125 -3.992188 1.8125 -5.507812 Z M 1.8125 -5.507812 "/></g></g></g><g fill="#545454" fill-opacity="1"><g transform="translate(83.719133, 259.548792)"><g><path d="M 9.773438 0.0117188 L 12.105469 0.0117188 C 12.105469 0.0117188 11.554688 -0.253906 11.554688 -0.980469 L 11.554688 -7.683594 L 9.191406 -7.683594 L 6.597656 -1.199219 L 5.828125 -1.199219 L 3.234375 -7.683594 L 0.867188 -7.683594 L 0.867188 -0.980469 C 0.867188 -0.375 0.328125 0.0117188 0.328125 0.0117188 L 2.648438 0.0117188 C 2.648438 0.0117188 2.109375 -0.328125 2.109375 -0.980469 L 2.109375 -6.488281 L 2.417969 -6.488281 L 5.015625 0.0117188 L 7.410156 0 L 10.003906 -6.488281 L 10.3125 -6.488281 L 10.3125 -0.980469 C 10.3125 -0.285156 9.773438 0.0117188 9.773438 0.0117188 Z M 9.773438 0.0117188 "/></g></g></g><g fill="#545454" fill-opacity="1"><g transform="translate(97.757354, 259.548792)"><g><path d="M 6.441406 0.0117188 L 9.554688 0.0117188 C 9.554688 0.0117188 8.882812 -0.285156 8.464844 -1.132812 L 5.859375 -7.683594 L 3.671875 -7.683594 L 1.066406 -1.132812 C 0.660156 -0.285156 -0.0117188 0.0117188 -0.0117188 0.0117188 L 3.101562 0.0117188 C 3.101562 0.0117188 2.230469 -0.617188 2.363281 -1.023438 L 2.957031 -2.519531 L 6.574219 -2.519531 L 7.167969 -1.023438 C 7.300781 -0.617188 6.441406 0.0117188 6.441406 0.0117188 Z M 3.441406 -3.726562 L 4.539062 -6.488281 L 4.992188 -6.488281 L 6.101562 -3.726562 Z M 3.441406 -3.726562 "/></g></g></g><g fill="#545454" fill-opacity="1"><g transform="translate(108.904613, 259.548792)"><g><path d="M 7.082031 -1.472656 L 5.914062 -2.980469 C 7.058594 -3.054688 7.949219 -3.925781 7.949219 -5.464844 C 7.949219 -6.695312 6.949219 -7.695312 5.726562 -7.695312 L 0.320312 -7.695312 C 0.320312 -7.695312 0.859375 -7.34375 0.859375 -6.609375 L 0.859375 -0.980469 C 0.859375 -0.308594 0.320312 0 0.320312 0 L 2.640625 0 C 2.640625 0 2.101562 -0.308594 2.101562 -0.980469 L 2.101562 -2.96875 L 4.519531 -2.96875 L 5.925781 -1.144531 C 6.488281 -0.417969 7.949219 0 8.863281 0 L 8.863281 -0.617188 C 8.160156 -0.617188 7.507812 -0.921875 7.082031 -1.472656 Z M 2.101562 -4.167969 L 2.101562 -5.71875 C 2.101562 -6.136719 2.453125 -6.488281 2.878906 -6.488281 L 5.132812 -6.488281 C 6.136719 -6.488281 6.882812 -5.894531 6.675781 -5.070312 C 6.542969 -4.53125 5.785156 -4.167969 5.023438 -4.167969 Z M 2.101562 -4.167969 "/></g></g></g><g fill="#545454" fill-opacity="1"><g transform="translate(119.480275, 259.548792)"><g><path d="M 8.324219 -7.652344 L 8.324219 -7.695312 L 0.5625 -7.695312 L 0.5625 -7.652344 L 0.175781 -5.222656 C 0.175781 -5.222656 1.230469 -6.488281 1.628906 -6.488281 L 3.277344 -6.488281 C 3.605469 -6.3125 3.816406 -6.167969 3.816406 -5.785156 L 3.816406 -0.980469 C 3.816406 -0.285156 3.277344 0 3.277344 0 L 5.609375 0 C 5.609375 0 5.058594 -0.320312 5.058594 -0.980469 L 5.058594 -5.785156 C 5.058594 -6.15625 5.265625 -6.3125 5.609375 -6.488281 L 7.246094 -6.488281 C 7.640625 -6.488281 8.707031 -5.222656 8.707031 -5.222656 Z M 8.324219 -7.652344 "/></g></g></g><g fill="#545454" fill-opacity="1"><g transform="translate(129.968001, 259.548792)"><g/></g></g><g fill="#545454" fill-opacity="1"><g transform="translate(134.860687, 259.548792)"><g><path d="M 1.8125 -5.507812 C 1.8125 -6.320312 2.539062 -6.609375 4.144531 -6.609375 C 5.71875 -6.609375 6.554688 -6.257812 6.554688 -5.234375 L 7.796875 -5.125 C 7.796875 -6.222656 6.816406 -7.785156 4.144531 -7.785156 C 1.550781 -7.785156 0.570312 -6.652344 0.570312 -5.507812 C 0.570312 -2.714844 6.628906 -3.210938 6.628906 -2.023438 C 6.628906 -1.40625 5.925781 -1.078125 4.1875 -1.078125 C 2.738281 -1.078125 1.636719 -1.296875 1.636719 -2.957031 L 0.40625 -3.054688 C 0.40625 -0.878906 1.8125 0.121094 4.1875 0.121094 C 6.53125 0.121094 7.871094 -0.878906 7.871094 -2.023438 C 7.871094 -4.605469 1.8125 -3.992188 1.8125 -5.507812 Z M 1.8125 -5.507812 "/></g></g></g><g fill="#545454" fill-opacity="1"><g transform="translate(144.743844, 259.548792)"><g><path d="M 4.605469 -6.609375 C 6.433594 -6.609375 7.628906 -5.410156 7.628906 -3.835938 C 7.628906 -2.285156 6.433594 -1.078125 4.605469 -1.078125 C 2.78125 -1.078125 1.582031 -2.40625 1.582031 -3.835938 C 1.582031 -5.367188 2.78125 -6.609375 4.605469 -6.609375 Z M 0.351562 -3.835938 C 0.351562 -1.386719 2.417969 0.121094 4.605469 0.121094 C 6.792969 0.121094 8.863281 -1.441406 8.863281 -3.835938 C 8.863281 -6.234375 6.792969 -7.804688 4.605469 -7.804688 C 2.417969 -7.804688 0.351562 -6.300781 0.351562 -3.835938 Z M 0.351562 -3.835938 "/></g></g></g><g fill="#545454" fill-opacity="1"><g transform="translate(155.561343, 259.548792)"><g><path d="M 6.785156 -7.695312 L 0.320312 -7.695312 C 0.320312 -7.695312 0.859375 -7.269531 0.859375 -6.707031 L 0.859375 -0.980469 C 0.859375 -0.339844 0.320312 0 0.320312 0 L 2.640625 0 C 2.640625 0 2.101562 -0.328125 2.101562 -0.980469 L 2.101562 -3.308594 L 4.464844 -3.308594 C 4.992188 -3.308594 5.476562 -2.957031 5.476562 -2.957031 L 5.476562 -4.835938 C 5.476562 -4.835938 4.957031 -4.519531 4.464844 -4.519531 L 2.101562 -4.519531 L 2.101562 -5.707031 C 2.101562 -6.136719 2.453125 -6.488281 2.878906 -6.488281 L 5.707031 -6.488281 C 6.101562 -6.488281 7.289062 -5.222656 7.289062 -5.222656 Z M 6.785156 -7.695312 "/></g></g></g><g fill="#545454" fill-opacity="1"><g transform="translate(164.609093, 259.548792)"><g><path d="M 8.324219 -7.652344 L 8.324219 -7.695312 L 0.5625 -7.695312 L 0.5625 -7.652344 L 0.175781 -5.222656 C 0.175781 -5.222656 1.230469 -6.488281 1.628906 -6.488281 L 3.277344 -6.488281 C 3.605469 -6.3125 3.816406 -6.167969 3.816406 -5.785156 L 3.816406 -0.980469 C 3.816406 -0.285156 3.277344 0 3.277344 0 L 5.609375 0 C 5.609375 0 5.058594 -0.320312 5.058594 -0.980469 L 5.058594 -5.785156 C 5.058594 -6.15625 5.265625 -6.3125 5.609375 -6.488281 L 7.246094 -6.488281 C 7.640625 -6.488281 8.707031 -5.222656 8.707031 -5.222656 Z M 8.324219 -7.652344 "/></g></g></g><g fill="#545454" fill-opacity="1"><g transform="translate(175.096818, 259.548792)"><g><path d="M 11.972656 -7.695312 C 11.972656 -7.695312 12.972656 -7.222656 12.796875 -6.683594 L 11.070312 -1.199219 L 10.730469 -1.199219 L 8.6875 -7.695312 L 6.3125 -7.695312 L 4.265625 -1.199219 L 3.9375 -1.199219 L 2.210938 -6.683594 C 2.035156 -7.222656 3.035156 -7.695312 3.035156 -7.695312 L -0.0898438 -7.695312 C -0.0898438 -7.695312 0.617188 -7.386719 0.921875 -6.664062 L 3.011719 0 L 5.191406 0 L 7.234375 -6.488281 L 7.761719 -6.488281 L 9.808594 0 L 11.996094 0 L 14.085938 -6.664062 C 14.390625 -7.386719 15.097656 -7.695312 15.097656 -7.695312 Z M 11.972656 -7.695312 "/></g></g></g><g fill="#545454" fill-opacity="1"><g transform="translate(191.707207, 259.548792)"><g><path d="M 6.441406 0.0117188 L 9.554688 0.0117188 C 9.554688 0.0117188 8.882812 -0.285156 8.464844 -1.132812 L 5.859375 -7.683594 L 3.671875 -7.683594 L 1.066406 -1.132812 C 0.660156 -0.285156 -0.0117188 0.0117188 -0.0117188 0.0117188 L 3.101562 0.0117188 C 3.101562 0.0117188 2.230469 -0.617188 2.363281 -1.023438 L 2.957031 -2.519531 L 6.574219 -2.519531 L 7.167969 -1.023438 C 7.300781 -0.617188 6.441406 0.0117188 6.441406 0.0117188 Z M 3.441406 -3.726562 L 4.539062 -6.488281 L 4.992188 -6.488281 L 6.101562 -3.726562 Z M 3.441406 -3.726562 "/></g></g></g><g fill="#545454" fill-opacity="1"><g transform="translate(202.854461, 259.548792)"><g><path d="M 7.082031 -1.472656 L 5.914062 -2.980469 C 7.058594 -3.054688 7.949219 -3.925781 7.949219 -5.464844 C 7.949219 -6.695312 6.949219 -7.695312 5.726562 -7.695312 L 0.320312 -7.695312 C 0.320312 -7.695312 0.859375 -7.34375 0.859375 -6.609375 L 0.859375 -0.980469 C 0.859375 -0.308594 0.320312 0 0.320312 0 L 2.640625 0 C 2.640625 0 2.101562 -0.308594 2.101562 -0.980469 L 2.101562 -2.96875 L 4.519531 -2.96875 L 5.925781 -1.144531 C 6.488281 -0.417969 7.949219 0 8.863281 0 L 8.863281 -0.617188 C 8.160156 -0.617188 7.507812 -0.921875 7.082031 -1.472656 Z M 2.101562 -4.167969 L 2.101562 -5.71875 C 2.101562 -6.136719 2.453125 -6.488281 2.878906 -6.488281 L 5.132812 -6.488281 C 6.136719 -6.488281 6.882812 -5.894531 6.675781 -5.070312 C 6.542969 -4.53125 5.785156 -4.167969 5.023438 -4.167969 Z M 2.101562 -4.167969 "/></g></g></g><g fill="#545454" fill-opacity="1"><g transform="translate(213.430129, 259.548792)"><g><path d="M 6.003906 -1.199219 L 2.890625 -1.199219 C 2.472656 -1.199219 2.121094 -1.539062 2.121094 -1.96875 L 2.121094 -3.308594 L 4.484375 -3.308594 C 4.925781 -3.308594 5.507812 -2.957031 5.507812 -2.957031 L 5.507812 -4.835938 C 5.507812 -4.835938 4.894531 -4.519531 4.484375 -4.519531 L 2.121094 -4.519531 L 2.121094 -5.707031 C 2.121094 -6.136719 2.472656 -6.488281 2.902344 -6.488281 L 5.726562 -6.488281 C 6.125 -6.488281 7.3125 -5.222656 7.3125 -5.222656 L 6.695312 -7.683594 L 0.339844 -7.683594 C 0.339844 -7.683594 0.878906 -7.300781 0.878906 -6.707031 L 0.878906 -1 C 0.878906 -0.320312 0.339844 0.0117188 0.339844 0.0117188 L 7.082031 0.0117188 L 7.574219 -2.660156 C 7.574219 -2.660156 6.386719 -1.199219 6.003906 -1.199219 Z M 6.003906 -1.199219 "/></g></g></g><g fill="#545454" fill-opacity="1"><g transform="translate(222.972532, 259.548792)"><g/></g></g><g fill="#545454" fill-opacity="1"><g transform="translate(227.865224, 259.548792)"><g><path d="M 6.71875 -4.144531 C 7.277344 -4.53125 7.566406 -5.070312 7.554688 -5.925781 C 7.554688 -6.914062 6.609375 -7.683594 5.628906 -7.683594 L 0.339844 -7.683594 C 0.339844 -7.683594 0.878906 -7.453125 0.878906 -6.707031 L 0.878906 -0.980469 C 0.878906 -0.308594 0.339844 0.0117188 0.339844 0.0117188 L 5.75 0.0117188 C 6.851562 0.0117188 7.894531 -0.867188 7.894531 -1.96875 C 7.882812 -2.992188 7.488281 -3.738281 6.71875 -4.144531 Z M 5.023438 -6.488281 C 5.914062 -6.488281 6.496094 -6.023438 6.222656 -5.234375 C 6.070312 -4.78125 5.488281 -4.707031 4.9375 -4.707031 L 2.121094 -4.707031 L 2.121094 -5.664062 C 2.121094 -6.113281 2.484375 -6.488281 2.945312 -6.488281 Z M 5.113281 -1.199219 L 2.890625 -1.199219 C 2.460938 -1.199219 2.121094 -1.539062 2.121094 -1.96875 L 2.121094 -3.507812 L 4.992188 -3.507812 C 5.75 -3.507812 6.464844 -3.320312 6.617188 -2.582031 C 6.816406 -1.660156 6.089844 -1.199219 5.113281 -1.199219 Z M 5.113281 -1.199219 "/></g></g></g><g fill="#545454" fill-opacity="1"><g transform="translate(237.781346, 259.548792)"><g><path d="M 6.464844 -7.695312 C 6.464844 -7.695312 7.015625 -7.421875 7.015625 -6.707031 L 7.015625 -3.484375 C 7.015625 -1.648438 6.265625 -1.078125 4.507812 -1.078125 C 2.757812 -1.078125 2 -1.648438 2 -3.484375 L 2 -6.707031 C 2 -7.355469 2.539062 -7.695312 2.539062 -7.695312 L 0.21875 -7.695312 C 0.21875 -7.695312 0.757812 -7.410156 0.757812 -6.707031 L 0.757812 -3.332031 C 0.757812 -0.605469 2.59375 0.121094 4.507812 0.121094 C 6.410156 0.121094 8.257812 -0.605469 8.257812 -3.332031 L 8.246094 -6.707031 C 8.246094 -7.421875 8.796875 -7.695312 8.796875 -7.695312 Z M 6.464844 -7.695312 "/></g></g></g><g fill="#545454" fill-opacity="1"><g transform="translate(248.400982, 259.548792)"><g><path d="M 2.101562 -6.707031 C 2.101562 -7.445312 2.640625 -7.695312 2.640625 -7.695312 L 0.320312 -7.695312 C 0.320312 -7.695312 0.859375 -7.367188 0.859375 -6.707031 L 0.859375 -0.980469 C 0.859375 -0.320312 0.320312 0 0.320312 0 L 2.640625 0 C 2.640625 0 2.101562 -0.320312 2.101562 -0.980469 Z M 2.101562 -6.707031 "/></g></g></g><g fill="#545454" fill-opacity="1"><g transform="translate(252.952915, 259.548792)"><g><path d="M 6.003906 -1.199219 L 2.890625 -1.199219 C 2.472656 -1.199219 2.132812 -1.539062 2.132812 -1.957031 C 2.132812 -1.957031 2.132812 -1.957031 2.132812 -1.96875 L 2.132812 -7.695312 L 0.351562 -7.695312 C 0.351562 -7.695312 0.890625 -7.355469 0.890625 -6.707031 L 0.890625 -0.980469 C 0.890625 -0.417969 0.351562 0.0117188 0.351562 0.0117188 L 7.15625 0 L 7.179688 0 L 7.566406 -2.660156 C 7.566406 -2.660156 6.386719 -1.199219 6.003906 -1.199219 Z M 6.003906 -1.199219 "/></g></g></g><g fill="#545454" fill-opacity="1"><g transform="translate(262.308437, 259.548792)"><g><path d="M 4.332031 -7.683594 L 0.339844 -7.683594 C 0.339844 -7.683594 0.878906 -7.355469 0.878906 -6.707031 L 0.878906 -0.988281 C 0.878906 -0.308594 0.339844 0.0117188 0.339844 0.0117188 L 4.464844 0.0117188 C 6.675781 0.0117188 8.5 -1.628906 8.5 -4.101562 C 8.5 -6.144531 6.378906 -7.683594 4.332031 -7.683594 Z M 4.15625 -1.199219 L 2.914062 -1.199219 C 2.484375 -1.199219 2.132812 -1.550781 2.132812 -1.988281 L 2.132812 -5.671875 C 2.132812 -6.125 2.496094 -6.488281 2.945312 -6.488281 L 4.15625 -6.488281 C 5.925781 -6.488281 7.257812 -5.488281 7.257812 -3.847656 C 7.257812 -2.265625 5.925781 -1.199219 4.15625 -1.199219 Z M 4.15625 -1.199219 "/></g></g></g><g fill="#545454" fill-opacity="1"><g transform="translate(272.7522, 259.548792)"><g><path d="M 6.003906 -1.199219 L 2.890625 -1.199219 C 2.472656 -1.199219 2.121094 -1.539062 2.121094 -1.96875 L 2.121094 -3.308594 L 4.484375 -3.308594 C 4.925781 -3.308594 5.507812 -2.957031 5.507812 -2.957031 L 5.507812 -4.835938 C 5.507812 -4.835938 4.894531 -4.519531 4.484375 -4.519531 L 2.121094 -4.519531 L 2.121094 -5.707031 C 2.121094 -6.136719 2.472656 -6.488281 2.902344 -6.488281 L 5.726562 -6.488281 C 6.125 -6.488281 7.3125 -5.222656 7.3125 -5.222656 L 6.695312 -7.683594 L 0.339844 -7.683594 C 0.339844 -7.683594 0.878906 -7.300781 0.878906 -6.707031 L 0.878906 -1 C 0.878906 -0.320312 0.339844 0.0117188 0.339844 0.0117188 L 7.082031 0.0117188 L 7.574219 -2.660156 C 7.574219 -2.660156 6.386719 -1.199219 6.003906 -1.199219 Z M 6.003906 -1.199219 "/></g></g></g><g fill="#545454" fill-opacity="1"><g transform="translate(282.294603, 259.548792)"><g><path d="M 7.082031 -1.472656 L 5.914062 -2.980469 C 7.058594 -3.054688 7.949219 -3.925781 7.949219 -5.464844 C 7.949219 -6.695312 6.949219 -7.695312 5.726562 -7.695312 L 0.320312 -7.695312 C 0.320312 -7.695312 0.859375 -7.34375 0.859375 -6.609375 L 0.859375 -0.980469 C 0.859375 -0.308594 0.320312 0 0.320312 0 L 2.640625 0 C 2.640625 0 2.101562 -0.308594 2.101562 -0.980469 L 2.101562 -2.96875 L 4.519531 -2.96875 L 5.925781 -1.144531 C 6.488281 -0.417969 7.949219 0 8.863281 0 L 8.863281 -0.617188 C 8.160156 -0.617188 7.507812 -0.921875 7.082031 -1.472656 Z M 2.101562 -4.167969 L 2.101562 -5.71875 C 2.101562 -6.136719 2.453125 -6.488281 2.878906 -6.488281 L 5.132812 -6.488281 C 6.136719 -6.488281 6.882812 -5.894531 6.675781 -5.070312 C 6.542969 -4.53125 5.785156 -4.167969 5.023438 -4.167969 Z M 2.101562 -4.167969 "/></g></g></g><g fill="#545454" fill-opacity="1"><g transform="translate(292.870271, 259.548792)"><g><path d="M 1.8125 -5.507812 C 1.8125 -6.320312 2.539062 -6.609375 4.144531 -6.609375 C 5.71875 -6.609375 6.554688 -6.257812 6.554688 -5.234375 L 7.796875 -5.125 C 7.796875 -6.222656 6.816406 -7.785156 4.144531 -7.785156 C 1.550781 -7.785156 0.570312 -6.652344 0.570312 -5.507812 C 0.570312 -2.714844 6.628906 -3.210938 6.628906 -2.023438 C 6.628906 -1.40625 5.925781 -1.078125 4.1875 -1.078125 C 2.738281 -1.078125 1.636719 -1.296875 1.636719 -2.957031 L 0.40625 -3.054688 C 0.40625 -0.878906 1.8125 0.121094 4.1875 0.121094 C 6.53125 0.121094 7.871094 -0.878906 7.871094 -2.023438 C 7.871094 -4.605469 1.8125 -3.992188 1.8125 -5.507812 Z M 1.8125 -5.507812 "/></g></g></g></svg>