<?xml version="1.0" standalone="no"?>
<!DOCTYPE svg PUBLIC "-//W3C//DTD SVG 20010904//EN"
 "http://www.w3.org/TR/2001/REC-SVG-20010904/DTD/svg10.dtd">
<svg version="1.0" xmlns="http://www.w3.org/2000/svg"
 width="1200.000000pt" height="400.000000pt" viewBox="0 0 1200.000000 400.000000"
 preserveAspectRatio="xMidYMid meet">
<metadata>
Created by potrace 1.16, written by Peter Selinger 2001-2019
</metadata>
<g transform="translate(0.000000,400.000000) scale(0.100000,-0.100000)"
fill="#000000" stroke="none">
<path d="M1562 2566 c0 -20 4 -39 9 -42 5 -3 9 -13 9 -22 0 -15 -2 -15 -10 -2
-8 13 -10 12 -10 -2 0 -10 6 -18 13 -18 21 0 34 -115 34 -290 0 -85 -2 -142
-4 -126 l-5 29 -60 -7 c-34 -3 -69 -6 -79 -6 -11 0 -19 -7 -19 -15 0 -11 11
-15 40 -15 29 0 40 4 40 15 0 10 10 15 30 15 28 0 30 -2 30 -40 0 -36 -2 -40
-26 -40 -22 0 -24 -2 -14 -15 29 -34 4 -38 -212 -31 -205 7 -208 6 -208 -14 0
-19 6 -20 123 -22 67 -1 104 -3 82 -5 -22 -1 -77 -5 -122 -9 -62 -4 -83 -9
-83 -20 0 -11 -18 -14 -79 -14 -91 0 -93 2 -82 81 4 33 2 70 -4 94 -10 33 -13
-9 -21 -255 -15 -495 -13 -632 14 -717 12 -40 27 -75 34 -79 7 -5 8 -3 3 6 -5
8 -4 11 3 6 6 -4 9 -13 6 -21 -3 -7 3 -18 13 -24 15 -7 26 -4 51 16 18 13 29
29 26 35 -4 7 -2 8 4 4 15 -9 104 73 95 87 -3 6 -1 7 5 3 14 -8 115 112 106
126 -4 6 -2 8 4 5 13 -9 85 90 76 105 -4 6 -3 8 3 5 13 -8 46 50 37 65 -4 7
-3 8 4 4 13 -8 86 129 77 144 -4 6 -2 10 3 10 24 0 90 229 112 387 19 129 8
426 -19 543 -12 52 -24 96 -26 98 -1 2 -3 -13 -3 -32z"/>
<path d="M2721 1999 c-55 -11 -150 -55 -220 -103 -30 -20 -60 -35 -66 -32 -9
3 -11 24 -8 70 6 76 7 75 -77 47 -30 -10 -102 -28 -160 -41 -58 -12 -110 -27
-117 -32 -21 -17 -3 -35 56 -57 32 -12 71 -31 85 -42 l27 -21 -3 -308 c-3
-356 1 -341 -99 -362 -59 -12 -59 -12 -59 -48 l0 -36 245 0 245 0 0 38 c0 36
-1 37 -46 44 -25 3 -58 17 -72 29 l-27 23 -3 284 c-2 220 0 289 10 308 19 35
107 85 173 98 123 25 217 -29 252 -145 14 -49 17 -96 16 -296 -2 -282 -1 -280
-93 -299 -63 -13 -78 -28 -65 -68 6 -19 15 -20 245 -20 257 0 250 -2 250 55 0
19 -8 24 -59 34 -32 6 -65 19 -74 29 -13 14 -16 63 -18 319 -2 223 0 305 9
316 19 22 124 66 176 73 68 10 133 -12 181 -60 63 -63 68 -94 67 -374 0 -279
-1 -281 -79 -302 -61 -16 -66 -22 -59 -57 l6 -28 237 0 237 0 7 33 c8 38 10
36 -58 52 -29 6 -64 21 -78 32 l-25 19 0 272 c0 285 -5 330 -48 412 -59 114
-194 173 -322 141 -71 -18 -121 -43 -214 -104 -66 -44 -69 -45 -83 -26 -78
108 -181 156 -292 133z"/>
<path d="M4454 2000 c-129 -19 -237 -71 -321 -156 -75 -75 -109 -144 -126
-256 -33 -225 75 -456 248 -533 151 -67 317 -59 479 22 165 83 256 244 256
453 0 140 -38 243 -122 336 -63 68 -164 120 -263 134 -77 11 -79 11 -151 0z
m124 -124 c132 -67 202 -214 202 -426 0 -176 -39 -268 -133 -315 -71 -35 -143
-34 -223 4 -135 64 -214 222 -214 431 0 185 58 292 178 331 43 14 138 2 190
-25z"/>
<path d="M5530 2001 c-20 -12 -196 -58 -255 -66 -25 -4 -56 -15 -68 -25 -29
-24 -14 -41 62 -70 109 -40 103 -16 99 -365 -3 -348 -1 -338 -92 -352 l-51 -8
0 -44 0 -44 247 -1 c239 -1 247 0 252 19 3 11 6 30 6 42 0 23 -4 25 -80 38
-56 9 -63 18 -71 92 -13 118 -10 515 4 543 7 14 40 39 76 57 53 28 73 33 129
33 112 -1 181 -47 212 -143 14 -44 20 -508 7 -544 -8 -22 -31 -32 -110 -48
-26 -5 -28 -9 -25 -47 l3 -42 245 1 245 0 9 31 c13 45 3 58 -47 65 -61 8 -97
26 -102 51 -3 12 -7 138 -9 281 -5 281 -13 340 -59 418 -79 134 -241 174 -399
100 -36 -17 -91 -50 -122 -72 -30 -23 -58 -41 -61 -41 -4 0 -6 26 -5 58 3 99
-1 106 -40 83z"/>
<path d="M6980 2004 c-121 -20 -242 -75 -305 -140 -59 -60 -85 -132 -85 -234
0 -141 55 -236 168 -290 28 -14 52 -30 52 -37 0 -6 -38 -35 -85 -63 -91 -55
-98 -66 -70 -119 16 -33 68 -79 102 -92 13 -5 23 -13 23 -18 0 -5 -31 -32 -69
-60 -88 -66 -147 -130 -159 -174 -30 -106 64 -248 197 -298 115 -43 298 -41
425 5 328 119 467 456 251 608 -49 34 -142 53 -345 68 -154 11 -195 25 -211
68 -13 36 36 82 88 82 152 0 336 115 384 239 23 59 31 175 17 239 l-8 33 53
-6 c58 -6 90 5 118 45 22 31 33 90 20 110 -8 12 -12 12 -28 -3 -26 -22 -117
-41 -167 -33 -22 4 -81 20 -131 35 -89 28 -186 42 -235 35z m78 -108 c64 -34
108 -105 120 -196 16 -116 -17 -226 -81 -274 -45 -33 -150 -30 -205 7 -54 35
-87 87 -108 167 -47 184 43 330 194 315 30 -3 66 -12 80 -19z m137 -931 c121
-32 171 -91 163 -192 -7 -78 -45 -129 -132 -173 -67 -34 -73 -35 -180 -35
-100 1 -117 3 -174 29 -94 43 -152 119 -152 200 0 59 72 145 152 181 42 20
233 14 323 -10z"/>
<path d="M8165 2000 c-170 -26 -305 -103 -381 -217 -54 -81 -74 -156 -74 -272
0 -160 43 -281 134 -373 204 -208 612 -154 777 103 51 79 71 159 73 279 1 131
-25 223 -91 311 -92 125 -272 195 -438 169z m120 -125 c135 -66 214 -243 202
-455 -7 -119 -27 -184 -72 -237 -47 -55 -106 -77 -188 -71 -76 6 -128 31 -185
89 -114 115 -164 374 -106 544 21 59 93 135 144 152 54 18 143 9 205 -22z"/>
</g>
</svg>
