<svg xmlns="http://www.w3.org/2000/svg" xmlns:xlink="http://www.w3.org/1999/xlink" width="500" zoomAndPan="magnify" viewBox="0 0 375 374.999991" height="500" preserveAspectRatio="xMidYMid meet" version="1.0"><defs><clipPath id="id1"><path d="M 102 51.578125 L 273 51.578125 L 273 164 L 102 164 Z M 102 51.578125 " clip-rule="nonzero"/></clipPath><clipPath id="id2"><path d="M 171 91 L 342.042969 91 L 342.042969 204 L 171 204 Z M 171 91 " clip-rule="nonzero"/></clipPath><clipPath id="id3"><path d="M 240 131 L 309 131 L 309 323.078125 L 240 323.078125 Z M 240 131 " clip-rule="nonzero"/></clipPath><clipPath id="id4"><path d="M 102 210 L 273 210 L 273 323.078125 L 102 323.078125 Z M 102 210 " clip-rule="nonzero"/></clipPath><clipPath id="id5"><path d="M 33.042969 171 L 204 171 L 204 284 L 33.042969 284 Z M 33.042969 171 " clip-rule="nonzero"/></clipPath><clipPath id="id6"><path d="M 66 51.578125 L 135 51.578125 L 135 244 L 66 244 Z M 66 51.578125 " clip-rule="nonzero"/></clipPath></defs><g clip-path="url(#id1)"><path fill="#2aa873" d="M 130.027344 159.078125 C 132.984375 156.125 134.8125 152.050781 134.8125 147.542969 C 134.8125 143.472656 133.316406 139.746094 130.84375 136.890625 L 167.609375 73.308594 L 241.1875 73.308594 C 242.003906 75.644531 243.34375 77.738281 245.058594 79.449219 C 248.011719 82.402344 252.097656 84.226562 256.609375 84.226562 C 261.117188 84.226562 265.203125 82.402344 268.160156 79.449219 C 271.117188 76.5 272.945312 72.421875 272.945312 67.917969 C 272.945312 63.414062 271.117188 59.335938 268.160156 56.382812 C 265.203125 53.433594 261.121094 51.605469 256.609375 51.605469 C 252.097656 51.605469 248.011719 53.433594 245.058594 56.382812 C 243.34375 58.097656 242.003906 60.191406 241.1875 62.527344 L 161.429688 62.527344 L 159.859375 65.242188 L 121.535156 131.519531 C 120.542969 131.332031 119.519531 131.234375 118.476562 131.234375 C 113.964844 131.234375 109.882812 133.0625 106.925781 136.011719 C 103.96875 138.964844 102.140625 143.042969 102.140625 147.542969 C 102.140625 152.050781 103.96875 156.125 106.925781 159.078125 C 109.882812 162.03125 113.964844 163.855469 118.476562 163.855469 C 122.984375 163.855469 127.070312 162.03125 130.027344 159.078125 Z M 114.558594 143.632812 C 115.5625 142.636719 116.945312 142.015625 118.476562 142.015625 C 120.003906 142.015625 121.390625 142.636719 122.390625 143.632812 C 123.390625 144.632812 124.011719 146.015625 124.011719 147.542969 C 124.011719 149.070312 123.390625 150.453125 122.390625 151.453125 C 121.390625 152.453125 120.003906 153.070312 118.476562 153.070312 C 116.945312 153.070312 115.5625 152.453125 114.558594 151.453125 C 113.558594 150.453125 112.941406 149.070312 112.941406 147.542969 C 112.941406 146.015625 113.558594 144.632812 114.558594 143.632812 Z M 252.695312 64.007812 C 253.695312 63.007812 255.078125 62.390625 256.609375 62.390625 C 258.136719 62.390625 259.523438 63.007812 260.523438 64.007812 C 261.523438 65.007812 262.144531 66.390625 262.144531 67.917969 C 262.144531 69.441406 261.523438 70.824219 260.523438 71.824219 C 259.523438 72.824219 258.136719 73.445312 256.609375 73.445312 C 255.078125 73.445312 253.695312 72.824219 252.695312 71.824219 C 251.691406 70.824219 251.070312 69.441406 251.070312 67.917969 C 251.070312 66.390625 251.691406 65.007812 252.695312 64.007812 " fill-opacity="1" fill-rule="evenodd"/></g><g clip-path="url(#id2)"><path fill="#57c59a" d="M 175.992188 119.265625 C 178.949219 122.214844 183.03125 124.042969 187.542969 124.042969 C 192.054688 124.042969 196.136719 122.214844 199.09375 119.265625 C 200.808594 117.550781 202.144531 115.457031 202.960938 113.121094 L 276.539062 113.121094 L 313.304688 176.703125 C 310.835938 179.5625 309.339844 183.285156 309.339844 187.359375 C 309.339844 191.863281 311.167969 195.9375 314.125 198.890625 C 317.078125 201.84375 321.164062 203.667969 325.675781 203.667969 C 330.1875 203.667969 334.269531 201.84375 337.226562 198.890625 C 340.183594 195.941406 342.011719 191.863281 342.011719 187.359375 C 342.011719 182.855469 340.183594 178.777344 337.226562 175.824219 C 334.269531 172.871094 330.1875 171.050781 325.675781 171.050781 C 324.628906 171.050781 323.605469 171.144531 322.617188 171.332031 L 284.292969 105.054688 L 282.722656 102.339844 L 202.960938 102.339844 C 202.144531 100.003906 200.808594 97.910156 199.09375 96.199219 C 196.136719 93.246094 192.054688 91.421875 187.542969 91.421875 C 183.03125 91.421875 178.949219 93.246094 175.992188 96.199219 C 173.035156 99.152344 171.207031 103.226562 171.207031 107.734375 C 171.207031 112.234375 173.035156 116.3125 175.992188 119.265625 Z M 183.625 111.640625 C 182.625 110.640625 182.007812 109.257812 182.007812 107.734375 C 182.007812 106.203125 182.625 104.824219 183.625 103.824219 C 184.628906 102.824219 186.011719 102.203125 187.542969 102.203125 C 189.070312 102.203125 190.457031 102.824219 191.457031 103.824219 C 192.457031 104.824219 193.078125 106.203125 193.078125 107.734375 C 193.078125 109.257812 192.457031 110.640625 191.457031 111.640625 C 190.457031 112.640625 189.070312 113.257812 187.542969 113.257812 C 186.011719 113.257812 184.628906 112.640625 183.625 111.640625 Z M 321.761719 183.449219 C 322.761719 182.449219 324.144531 181.832031 325.675781 181.832031 C 327.203125 181.832031 328.585938 182.449219 329.589844 183.449219 C 330.589844 184.449219 331.210938 185.832031 331.210938 187.359375 C 331.210938 188.886719 330.589844 190.265625 329.589844 191.265625 C 328.585938 192.265625 327.203125 192.886719 325.675781 192.886719 C 324.144531 192.886719 322.761719 192.265625 321.761719 191.265625 C 320.757812 190.265625 320.136719 188.886719 320.136719 187.359375 C 320.136719 185.832031 320.757812 184.449219 321.761719 183.449219 " fill-opacity="1" fill-rule="evenodd"/></g><g clip-path="url(#id3)"><path fill="#6bcca6" d="M 240.269531 147.542969 C 240.269531 152.050781 242.101562 156.125 245.058594 159.078125 C 248.011719 162.03125 252.097656 163.855469 256.609375 163.855469 C 257.652344 163.855469 258.675781 163.757812 259.667969 163.570312 L 296.445312 227.171875 L 259.667969 290.773438 C 258.675781 290.585938 257.652344 290.488281 256.609375 290.488281 C 252.097656 290.488281 248.011719 292.316406 245.058594 295.269531 C 242.101562 298.21875 240.269531 302.296875 240.269531 306.796875 C 240.269531 311.300781 242.101562 315.382812 245.058594 318.332031 C 248.011719 321.28125 252.097656 323.113281 256.609375 323.113281 C 261.121094 323.113281 265.203125 321.28125 268.160156 318.332031 C 271.117188 315.382812 272.945312 311.300781 272.945312 306.796875 C 272.945312 302.726562 271.449219 299.003906 268.976562 296.144531 L 307.3125 229.847656 L 308.859375 227.171875 L 307.3125 224.496094 L 268.976562 158.199219 C 271.449219 155.339844 272.945312 151.613281 272.945312 147.542969 C 272.945312 143.042969 271.117188 138.964844 268.160156 136.011719 C 265.203125 133.0625 261.117188 131.234375 256.609375 131.234375 C 252.097656 131.234375 248.011719 133.0625 245.058594 136.011719 C 242.101562 138.964844 240.269531 143.042969 240.269531 147.542969 Z M 256.609375 153.070312 C 255.078125 153.070312 253.695312 152.453125 252.695312 151.453125 C 251.691406 150.453125 251.070312 149.070312 251.070312 147.542969 C 251.070312 146.015625 251.691406 144.632812 252.695312 143.632812 C 253.695312 142.636719 255.078125 142.015625 256.609375 142.015625 C 258.136719 142.015625 259.523438 142.636719 260.523438 143.632812 C 261.523438 144.632812 262.144531 146.015625 262.144531 147.542969 C 262.144531 149.070312 261.523438 150.453125 260.523438 151.453125 C 259.523438 152.453125 258.136719 153.070312 256.609375 153.070312 Z M 252.695312 302.890625 C 253.695312 301.890625 255.078125 301.273438 256.609375 301.273438 C 258.136719 301.273438 259.523438 301.890625 260.523438 302.890625 C 261.523438 303.890625 262.144531 305.273438 262.144531 306.796875 C 262.144531 308.324219 261.523438 309.707031 260.523438 310.710938 C 259.523438 311.710938 258.136719 312.328125 256.609375 312.328125 C 255.078125 312.328125 253.695312 311.710938 252.695312 310.710938 C 251.691406 309.707031 251.070312 308.324219 251.070312 306.796875 C 251.070312 305.273438 251.691406 303.890625 252.695312 302.890625 " fill-opacity="1" fill-rule="evenodd"/></g><g clip-path="url(#id4)"><path fill="#96dbbe" d="M 256.609375 210.863281 C 252.097656 210.863281 248.011719 212.6875 245.058594 215.636719 C 242.101562 218.589844 240.269531 222.667969 240.269531 227.171875 C 240.269531 231.242188 241.765625 234.96875 244.242188 237.828125 L 207.476562 301.40625 L 133.898438 301.40625 C 133.078125 299.070312 131.742188 296.980469 130.027344 295.269531 C 127.070312 292.316406 122.984375 290.488281 118.476562 290.488281 C 113.964844 290.488281 109.882812 292.316406 106.921875 295.269531 C 103.96875 298.21875 102.140625 302.296875 102.140625 306.796875 C 102.140625 311.300781 103.96875 315.382812 106.921875 318.332031 C 109.882812 321.28125 113.964844 323.113281 118.476562 323.113281 C 122.984375 323.113281 127.070312 321.28125 130.027344 318.332031 C 131.742188 316.617188 133.078125 314.527344 133.898438 312.191406 L 213.65625 312.191406 L 215.226562 309.472656 L 253.550781 243.195312 C 254.539062 243.382812 255.5625 243.480469 256.609375 243.480469 C 261.117188 243.480469 265.203125 241.65625 268.15625 238.707031 C 271.117188 235.753906 272.945312 231.675781 272.945312 227.171875 C 272.945312 222.667969 271.117188 218.589844 268.15625 215.636719 C 265.203125 212.6875 261.117188 210.863281 256.609375 210.863281 Z M 251.070312 227.171875 C 251.070312 225.644531 251.691406 224.261719 252.695312 223.261719 C 253.695312 222.261719 255.078125 221.644531 256.609375 221.644531 C 258.136719 221.644531 259.523438 222.261719 260.523438 223.261719 C 261.523438 224.261719 262.144531 225.644531 262.144531 227.171875 C 262.144531 228.699219 261.523438 230.082031 260.523438 231.082031 C 259.523438 232.078125 258.136719 232.699219 256.609375 232.699219 C 255.078125 232.699219 253.695312 232.078125 252.695312 231.082031 C 251.691406 230.082031 251.070312 228.699219 251.070312 227.171875 Z M 114.558594 302.890625 C 115.5625 301.890625 116.945312 301.273438 118.476562 301.273438 C 120.003906 301.273438 121.390625 301.890625 122.390625 302.890625 C 123.390625 303.890625 124.011719 305.273438 124.011719 306.796875 C 124.011719 308.324219 123.390625 309.707031 122.390625 310.710938 C 121.390625 311.710938 120.003906 312.328125 118.476562 312.328125 C 116.945312 312.328125 115.5625 311.710938 114.558594 310.710938 C 113.558594 309.707031 112.941406 308.324219 112.941406 306.796875 C 112.941406 305.273438 113.558594 303.890625 114.558594 302.890625 " fill-opacity="1" fill-rule="evenodd"/></g><g clip-path="url(#id5)"><path fill="#116246" d="M 199.089844 255.453125 C 196.136719 252.5 192.050781 250.675781 187.542969 250.675781 C 183.03125 250.675781 178.949219 252.5 175.988281 255.453125 C 174.277344 257.167969 172.9375 259.261719 172.121094 261.59375 L 98.546875 261.59375 L 61.777344 198.011719 C 64.25 195.15625 65.742188 191.429688 65.742188 187.359375 C 65.742188 182.855469 63.914062 178.777344 60.960938 175.824219 C 58.003906 172.871094 53.917969 171.050781 49.410156 171.050781 C 44.898438 171.050781 40.816406 172.871094 37.855469 175.824219 C 34.902344 178.777344 33.074219 182.855469 33.074219 187.359375 C 33.074219 191.863281 34.902344 195.941406 37.855469 198.890625 C 40.816406 201.84375 44.898438 203.667969 49.410156 203.667969 C 50.453125 203.667969 51.476562 203.570312 52.464844 203.382812 L 90.792969 269.660156 L 92.363281 272.375 L 172.121094 272.375 C 172.9375 274.714844 174.277344 276.804688 175.988281 278.519531 C 178.949219 281.46875 183.03125 283.296875 187.542969 283.296875 C 192.050781 283.296875 196.136719 281.46875 199.089844 278.519531 C 202.050781 275.566406 203.878906 271.488281 203.878906 266.984375 C 203.878906 262.484375 202.050781 258.40625 199.089844 255.453125 Z M 183.625 263.078125 C 184.628906 262.078125 186.011719 261.460938 187.542969 261.460938 C 189.070312 261.460938 190.457031 262.078125 191.457031 263.078125 C 192.457031 264.078125 193.078125 265.460938 193.078125 266.984375 C 193.078125 268.511719 192.457031 269.894531 191.457031 270.894531 C 190.457031 271.894531 189.070312 272.511719 187.542969 272.511719 C 186.011719 272.511719 184.628906 271.894531 183.625 270.894531 C 182.625 269.894531 182.007812 268.511719 182.007812 266.984375 C 182.007812 265.460938 182.625 264.078125 183.625 263.078125 Z M 53.324219 183.449219 C 54.324219 184.449219 54.945312 185.832031 54.945312 187.359375 C 54.945312 188.886719 54.324219 190.265625 53.324219 191.265625 C 52.320312 192.265625 50.9375 192.886719 49.410156 192.886719 C 47.878906 192.886719 46.496094 192.265625 45.492188 191.265625 C 44.492188 190.265625 43.875 188.886719 43.875 187.359375 C 43.875 185.832031 44.492188 184.449219 45.492188 183.449219 C 46.496094 182.449219 47.878906 181.832031 49.410156 181.832031 C 50.9375 181.832031 52.320312 182.449219 53.324219 183.449219 " fill-opacity="1" fill-rule="evenodd"/></g><g clip-path="url(#id6)"><path fill="#22755b" d="M 134.8125 227.171875 C 134.8125 222.667969 132.984375 218.589844 130.027344 215.636719 C 127.070312 212.6875 122.984375 210.863281 118.476562 210.863281 C 117.433594 210.863281 116.414062 210.957031 115.425781 211.144531 L 78.644531 147.535156 L 115.417969 83.941406 C 116.410156 84.128906 117.429688 84.226562 118.476562 84.226562 C 122.984375 84.226562 127.070312 82.402344 130.027344 79.449219 C 132.984375 76.5 134.8125 72.421875 134.8125 67.917969 C 134.8125 63.414062 132.984375 59.335938 130.027344 56.382812 C 127.070312 53.433594 122.984375 51.605469 118.476562 51.605469 C 113.964844 51.605469 109.882812 53.433594 106.921875 56.382812 C 103.96875 59.335938 102.140625 63.414062 102.140625 67.917969 C 102.140625 71.988281 103.632812 75.710938 106.105469 78.570312 L 67.769531 144.871094 L 66.214844 147.554688 L 67.769531 150.238281 L 106.097656 216.523438 C 103.632812 219.382812 102.140625 223.101562 102.140625 227.171875 C 102.140625 231.675781 103.96875 235.753906 106.921875 238.707031 C 109.882812 241.65625 113.964844 243.480469 118.476562 243.480469 C 122.984375 243.480469 127.070312 241.65625 130.027344 238.707031 C 132.984375 235.753906 134.8125 231.675781 134.8125 227.171875 Z M 114.558594 223.261719 C 115.5625 222.261719 116.945312 221.644531 118.476562 221.644531 C 120.003906 221.644531 121.390625 222.261719 122.390625 223.261719 C 123.390625 224.261719 124.011719 225.644531 124.011719 227.171875 C 124.011719 228.699219 123.390625 230.082031 122.390625 231.082031 C 121.390625 232.078125 120.003906 232.699219 118.476562 232.699219 C 116.945312 232.699219 115.5625 232.078125 114.558594 231.082031 C 113.558594 230.082031 112.941406 228.699219 112.941406 227.171875 C 112.941406 225.644531 113.558594 224.261719 114.558594 223.261719 Z M 118.476562 73.445312 C 116.945312 73.445312 115.5625 72.824219 114.558594 71.824219 C 113.558594 70.824219 112.941406 69.441406 112.941406 67.917969 C 112.941406 66.390625 113.558594 65.007812 114.558594 64.007812 C 115.5625 63.007812 116.945312 62.390625 118.476562 62.390625 C 120.003906 62.390625 121.390625 63.007812 122.390625 64.007812 C 123.390625 65.007812 124.011719 66.390625 124.011719 67.917969 C 124.011719 69.441406 123.390625 70.824219 122.386719 71.824219 C 121.390625 72.824219 120.003906 73.445312 118.476562 73.445312 " fill-opacity="1" fill-rule="evenodd"/></g></svg>